<?xml version="1.0" standalone="no"?>
<!DOCTYPE svg PUBLIC "-//W3C//DTD SVG 20010904//EN"
 "http://www.w3.org/TR/2001/REC-SVG-20010904/DTD/svg10.dtd">
<svg version="1.0" xmlns="http://www.w3.org/2000/svg"
 width="1024.000000pt" height="1024.000000pt" viewBox="0 0 1024.000000 1024.000000"
 preserveAspectRatio="xMidYMid meet">

<g transform="translate(0.000000,1024.000000) scale(0.100000,-0.100000)"
fill="#000000" stroke="none">
<path d="M0 5120 l0 -5120 5120 0 5120 0 0 5120 0 5120 -5120 0 -5120 0 0
-5120z m1340 4937 c0 -2 -9 -12 -20 -22 -24 -21 -27 -14 -4 9 15 15 24 20 24
13z m585 -52 c-27 -24 -51 -42 -53 -40 -7 7 21 41 51 63 54 38 55 24 2 -23z
m6515 -70 c0 -8 -3 -15 -8 -15 -4 0 -14 -10 -22 -23 -8 -12 -58 -63 -110 -112
-52 -50 -137 -129 -188 -177 -50 -48 -217 -194 -370 -324 -152 -131 -303 -262
-334 -293 l-57 -55 52 -28 c28 -16 64 -41 79 -55 l28 -26 37 26 c40 29 179
142 302 247 42 37 108 88 146 115 39 27 106 78 150 113 44 35 115 91 158 125
43 34 99 81 125 105 82 75 146 120 186 131 l39 10 -29 -32 c-44 -47 -79 -79
-193 -175 -57 -48 -127 -107 -155 -132 -28 -25 -157 -134 -286 -241 -129 -108
-282 -239 -340 -290 -58 -52 -136 -116 -175 -143 -38 -27 -108 -80 -155 -116
-47 -37 -101 -75 -120 -85 -61 -30 -151 -95 -283 -202 -70 -57 -142 -111 -160
-118 l-32 -14 53 -1 c52 0 56 2 125 63 40 34 94 84 122 110 55 53 173 117 217
117 23 0 59 31 189 160 l162 160 33 -20 c19 -10 41 -17 50 -13 28 10 -9 -38
-59 -78 -71 -57 -217 -190 -217 -198 0 -4 17 -7 39 -7 35 1 48 10 150 109 61
59 117 107 124 107 17 0 102 66 227 175 96 84 251 208 358 288 58 43 270 236
282 256 8 14 13 12 37 -12 33 -33 28 -45 -39 -97 -85 -66 -315 -255 -379 -311
-35 -32 -107 -95 -159 -141 -84 -73 -182 -155 -354 -294 -66 -54 -110 -101
-99 -107 4 -2 30 -8 56 -11 48 -7 50 -7 106 42 31 27 71 58 88 68 28 18 210
168 308 255 22 20 105 88 185 152 80 64 169 137 199 162 34 29 61 45 72 42 10
-3 20 0 21 5 2 6 11 4 20 -5 8 -9 18 -13 22 -10 3 4 6 2 6 -4 0 -6 -24 -31
-52 -54 -29 -24 -78 -66 -109 -94 -56 -51 -172 -149 -448 -379 -149 -125 -153
-129 -130 -142 30 -16 45 -8 128 70 154 143 253 220 266 208 5 -4 6 -2 3 3 -3
6 0 16 8 23 8 7 14 10 14 7 0 -4 7 1 16 10 12 11 20 13 27 6 6 -6 19 -11 29
-11 10 0 18 -4 18 -10 0 -5 8 -10 18 -10 10 0 -15 -29 -68 -78 -46 -42 -109
-102 -140 -132 -30 -30 -78 -73 -105 -95 -28 -22 -56 -48 -64 -58 -8 -11 -21
-17 -31 -14 -13 3 -17 0 -13 -9 6 -16 25 -8 63 28 14 13 50 41 80 63 30 22 73
57 95 77 21 21 45 38 52 38 15 0 58 26 87 52 10 10 23 15 27 13 4 -3 10 3 14
14 8 26 78 88 123 109 20 9 41 23 45 30 5 7 12 10 18 7 15 -10 -10 -47 -27
-41 -8 3 -12 2 -9 -4 3 -5 -47 -53 -111 -107 -221 -185 -339 -288 -424 -368
-47 -44 -118 -107 -157 -139 -40 -32 -71 -62 -68 -66 2 -4 19 -10 36 -14 27
-5 40 0 83 32 151 113 192 141 204 137 6 -2 12 0 12 5 0 6 28 31 62 58 34 26
105 85 157 131 52 46 144 120 205 166 61 45 144 110 185 143 41 34 78 59 83
56 4 -3 8 -16 8 -30 0 -13 5 -24 12 -24 16 0 -55 -60 -378 -320 -201 -162
-294 -241 -294 -250 0 -5 7 -13 16 -18 18 -10 73 29 292 208 65 53 176 143
247 200 72 58 177 144 235 193 58 49 114 93 125 98 19 9 18 9 -1 -8 l-21 -19
33 -1 c19 -1 34 3 34 8 0 5 5 9 10 9 6 0 10 -6 10 -13 0 -16 37 -39 45 -28 3
5 -1 11 -7 14 -7 3 -3 4 9 4 23 -1 23 -1 -4 -29 -14 -15 -30 -25 -35 -22 -5 3
-7 1 -6 -4 3 -11 -101 -106 -221 -201 -47 -36 -131 -106 -189 -156 -57 -49
-150 -128 -206 -173 -55 -46 -127 -108 -159 -138 -32 -30 -62 -52 -67 -49 -4
3 -6 -4 -3 -15 3 -11 9 -20 14 -20 10 0 188 140 378 298 74 61 148 118 163
125 15 6 28 15 28 19 0 5 14 8 30 8 17 0 30 5 30 13 0 16 60 83 71 80 5 -2 8
1 6 6 -3 12 80 91 95 91 6 0 17 8 25 18 14 16 14 16 9 -1 -3 -10 -6 -23 -6
-28 0 -6 -4 -8 -9 -4 -5 3 -12 -4 -16 -15 -3 -11 -18 -34 -32 -50 -14 -17 -23
-34 -19 -37 7 -7 -35 -39 -46 -35 -5 1 -8 -3 -8 -8 0 -6 -11 -23 -25 -38 -22
-23 -27 -25 -36 -12 -9 13 -10 13 -6 -1 4 -12 -31 -49 -121 -127 -113 -98
-180 -153 -382 -310 -30 -23 -92 -74 -138 -111 -46 -38 -97 -76 -113 -84 l-30
-14 38 -6 c21 -4 51 -7 67 -7 36 0 131 59 241 150 44 37 96 77 115 90 19 13
73 56 120 94 143 119 178 146 188 146 5 0 12 7 16 15 7 18 36 20 37 3 1 -7 4
-2 8 11 4 14 13 27 20 29 10 3 12 -1 9 -16 -7 -27 12 -34 35 -14 9 8 17 12 17
9 0 -6 -242 -209 -395 -332 -48 -38 -119 -96 -158 -127 -39 -32 -76 -58 -84
-58 -7 0 -13 -4 -13 -10 0 -5 16 -10 35 -10 46 0 86 -21 120 -62 28 -35 25
-22 -7 24 -10 14 -15 33 -12 42 3 9 40 41 83 73 42 31 128 100 191 152 170
141 192 157 218 153 12 -2 22 -9 22 -15 0 -7 4 -6 10 3 8 13 11 12 24 -5 18
-25 13 -33 -17 -30 -20 2 -23 -1 -20 -20 4 -17 -6 -31 -43 -61 -151 -122 -191
-158 -306 -277 -59 -61 -106 -112 -105 -113 1 -1 72 54 157 123 178 144 407
322 560 435 58 42 134 99 169 125 70 53 142 96 148 89 7 -7 -191 -184 -352
-313 -191 -152 -277 -222 -399 -323 -50 -42 -149 -120 -221 -175 -147 -113
-165 -129 -165 -150 0 -13 7 -12 43 6 23 12 58 35 77 51 19 16 40 33 46 37 17
14 43 -6 37 -29 -3 -11 -3 -20 0 -20 6 0 62 38 227 153 143 100 213 153 286
218 62 55 94 72 94 50 0 -5 -6 -11 -12 -14 -9 -3 -6 -12 10 -29 12 -13 22 -37
22 -52 0 -27 -39 -76 -60 -76 -17 0 -53 21 -67 39 -11 14 -12 14 -13 -4 0 -13
-25 -38 -67 -70 -204 -152 -353 -280 -353 -302 0 -8 18 -44 41 -82 l41 -69
101 70 c56 38 117 84 135 101 17 17 32 27 32 22 0 -5 7 1 16 13 8 12 20 20 25
17 5 -4 9 -1 9 4 0 6 10 9 23 7 14 -2 21 -9 19 -20 -2 -11 2 -14 15 -9 31 11
-76 -73 -217 -172 -74 -52 -157 -112 -185 -134 -27 -22 -90 -66 -138 -98 -128
-85 -273 -187 -347 -247 -36 -29 -110 -84 -165 -124 -182 -130 -255 -185 -854
-634 -42 -32 -121 -93 -175 -135 -55 -43 -141 -105 -191 -138 -50 -33 -124
-87 -165 -121 -41 -33 -91 -71 -110 -84 -58 -39 -382 -271 -580 -416 -102 -74
-228 -165 -280 -201 -52 -37 -147 -106 -210 -153 -102 -76 -452 -329 -683
-493 -45 -32 -109 -79 -142 -105 -32 -26 -92 -69 -131 -97 -40 -27 -135 -99
-211 -158 -337 -263 -482 -361 -578 -393 -28 -9 -54 -21 -60 -25 -13 -13 -43
-11 -47 3 -3 7 -44 -18 -104 -63 -128 -96 -162 -118 -272 -173 -95 -48 -142
-58 -142 -31 0 21 34 52 105 95 31 19 98 64 148 100 106 74 306 190 330 190 9
0 19 -5 22 -10 9 -15 55 -1 106 34 49 34 191 141 407 307 76 58 171 129 212
157 354 246 786 553 1110 787 47 34 106 76 132 94 26 17 112 80 191 139 181
135 402 294 617 445 47 33 112 80 145 106 33 25 103 75 156 111 110 74 279
199 591 436 138 105 408 305 459 340 106 74 370 272 437 328 74 62 130 133
175 221 28 56 88 220 91 248 2 10 9 23 17 28 11 7 10 9 -4 9 -11 0 -71 -27
-135 -60 -63 -32 -118 -57 -122 -55 -4 3 -11 81 -15 174 l-7 169 -27 -8 c-14
-4 -58 -22 -97 -40 l-72 -32 -4 -73 c-2 -41 -6 -77 -10 -80 -17 -18 -28 12
-28 80 0 85 9 77 -128 106 -52 10 -106 28 -122 39 -15 11 -32 20 -38 20 -13 0
-22 -50 -22 -124 0 -34 -4 -75 -9 -92 -8 -29 -7 -32 13 -32 22 1 174 -19 214
-28 12 -2 22 -8 22 -13 0 -9 -100 -59 -172 -86 l-48 -18 0 -75 c0 -92 -8 -92
-11 1 -1 37 -6 67 -11 67 -4 0 -9 -69 -10 -152 l-2 -153 -6 150 c-4 83 -8 155
-9 162 0 6 -16 13 -33 15 l-33 3 -7 85 c-3 47 -6 144 -7 216 l-1 130 110 54
c61 29 112 56 114 59 2 3 7 23 11 43 6 30 4 38 -13 47 -24 13 -314 51 -388 51
-73 0 -438 37 -493 50 -46 11 -302 39 -360 40 l-34 0 6 -57 c7 -64 17 -77 112
-137 l50 -31 3 -125 3 -125 -103 -53 c-57 -29 -154 -80 -215 -114 l-113 -61 5
-76 c3 -52 2 -66 -4 -46 -5 17 -9 48 -10 70 -2 66 16 57 -267 122 -41 9 -85
13 -105 9 l-35 -6 1 -94 0 -94 -50 -5 c-79 -8 -196 -38 -189 -48 3 -5 -5 -9
-17 -9 -12 0 -19 -3 -15 -7 8 -8 -133 -41 -211 -50 -29 -3 -53 -9 -53 -13 0
-5 19 -6 43 -3 55 7 40 -9 -32 -32 -30 -10 -80 -33 -111 -51 -57 -33 -117 -58
-275 -115 -113 -40 -181 -74 -193 -96 -9 -15 -11 -15 -26 0 -17 17 -23 19
-193 61 -56 15 -113 30 -127 36 -14 5 -39 7 -55 4 -28 -6 -29 -8 -33 -73 -3
-58 -1 -69 19 -88 26 -25 81 -43 135 -43 41 0 55 -12 35 -29 -15 -12 -134 -56
-392 -143 -99 -34 -182 -65 -184 -71 -2 -6 -6 -6 -10 0 -3 6 -85 27 -181 48
-96 21 -192 44 -214 51 -21 8 -40 14 -42 14 -2 0 -4 -45 -4 -99 0 -87 -2 -100
-17 -103 -10 -2 29 -3 87 -3 87 0 118 -5 185 -27 60 -20 100 -27 160 -27 44 0
112 -7 150 -16 39 -10 108 -18 155 -20 47 -1 66 -1 43 2 -24 2 -43 8 -43 12 0
5 28 19 63 32 34 13 89 40 122 60 33 20 121 59 195 88 165 62 196 64 424 20
89 -17 171 -33 184 -35 27 -5 31 -44 5 -45 -10 0 -79 -31 -153 -67 l-135 -67
1 -145 c1 -80 -2 -134 -6 -120 -5 14 -8 76 -9 138 -1 61 -3 112 -5 112 -15 0
-35 -14 -30 -21 3 -5 -1 -6 -8 -4 -8 3 -43 -9 -78 -27 l-65 -33 -6 -180 c-4
-99 -7 -219 -8 -267 0 -51 -5 -88 -11 -88 -6 0 -10 95 -10 264 l0 264 -22 6
c-37 10 -96 7 -104 -5 -4 -6 -50 -31 -103 -56 -53 -24 -122 -57 -153 -74 -71
-36 -94 -36 -243 0 -66 16 -149 32 -184 35 -75 8 -298 54 -323 67 -9 5 -45 12
-79 16 l-62 6 6 -25 c4 -13 10 -89 13 -167 7 -132 9 -143 28 -151 12 -4 101
-22 199 -39 98 -17 243 -47 322 -66 79 -19 197 -44 261 -55 64 -11 142 -26
173 -34 31 -8 77 -17 103 -21 31 -4 70 -22 120 -54 257 -168 267 -173 381
-191 96 -16 102 -34 9 -28 -61 3 -83 11 -227 83 -228 114 -223 113 -414 146
-96 17 -274 54 -395 84 -122 29 -284 65 -361 80 -77 15 -158 31 -181 37 l-41
10 -2 285 c-1 157 -6 318 -11 357 -5 39 -10 96 -10 127 0 57 -12 79 -42 79
-17 0 -18 -9 -11 -152 5 -84 8 -349 8 -588 0 -425 0 -435 -20 -435 -12 0 -22
9 -26 25 -4 14 -8 225 -9 470 -2 306 -5 429 -12 395 -12 -66 -15 -472 -4 -508
l8 -28 -43 7 c-24 3 -100 17 -169 30 -69 13 -166 27 -217 32 l-92 8 -6 -41
c-10 -65 -15 -75 -38 -75 -29 0 -249 -76 -322 -111 -33 -17 -78 -45 -100 -63
l-40 -34 26 -54 c40 -79 269 -400 615 -859 192 -255 237 -326 248 -390 8 -42
5 -46 -66 -93 -140 -92 -226 -198 -247 -307 -37 -186 67 -328 245 -333 52 -1
184 63 349 171 66 44 176 109 245 145 397 208 427 226 565 328 84 62 242 157
185 111 -88 -72 -319 -232 -395 -274 -201 -111 -430 -254 -605 -379 -124 -88
-321 -197 -377 -208 -165 -35 -325 84 -350 260 -7 46 -11 53 -33 57 -66 9
-160 51 -291 130 -206 123 -262 170 -439 360 -57 62 -105 111 -107 109 -2 -2
7 -16 21 -31 14 -15 23 -34 19 -43 -4 -13 -3 -14 5 -4 7 10 12 8 25 -11 19
-30 7 -58 -17 -38 -9 8 -30 11 -47 9 -28 -4 -36 1 -86 61 -195 235 -329 484
-441 816 -72 215 -112 485 -113 760 0 144 22 442 36 483 5 15 37 16 52 1 8 -8
13 3 18 42 4 30 12 97 18 149 l12 95 58 3 c57 3 57 3 57 -25 0 -15 -4 -55 -9
-88 -19 -121 -26 -255 -26 -500 1 -264 8 -332 62 -590 72 -347 252 -723 488
-1020 173 -218 470 -464 659 -546 30 -13 59 -33 64 -44 7 -15 10 -6 15 40 13
120 75 247 157 318 19 16 56 49 82 72 l48 43 -31 41 c-20 28 -40 44 -60 48
-17 3 -27 9 -22 12 16 12 13 33 -7 62 -12 16 -27 29 -35 29 -7 0 -18 15 -25
33 -21 62 -34 72 -113 77 l-72 5 53 24 52 25 -27 28 c-19 19 -37 28 -59 28
-18 0 -36 5 -40 12 -8 13 25 40 39 31 6 -3 -4 14 -21 39 -17 24 -39 45 -49 46
-10 1 -91 2 -181 2 -89 1 -162 5 -162 10 0 13 68 20 206 23 106 2 121 4 113
17 -6 8 -36 50 -67 94 l-57 79 -150 1 c-118 1 -156 5 -178 17 -24 15 -26 17
-10 24 10 4 74 9 142 12 116 5 125 4 154 -17 34 -25 30 -16 -22 53 -36 48 -36
48 -83 42 -43 -6 -48 -4 -48 14 0 15 -8 21 -32 24 -20 2 -10 4 25 5 42 2 56 5
51 14 -5 8 -2 9 10 5 16 -6 16 -4 -1 24 -10 17 -27 38 -37 47 -11 9 -16 12
-13 6 9 -16 -39 -23 -133 -20 -74 2 -100 9 -100 25 0 11 73 29 144 36 48 4 62
1 74 -13 8 -9 6 -3 -3 13 -33 55 -40 62 -60 59 -11 -2 -121 -5 -245 -8 -124
-2 -187 -1 -140 3 47 4 72 8 55 9 -51 4 -9 20 75 29 l75 8 -125 5 c-116 6
-111 6 74 8 195 2 200 1 224 -20 25 -23 25 -22 -4 29 l-29 52 -261 -6 -262 -6
-7 22 c-4 12 -5 24 -3 26 1 2 68 6 148 9 327 13 360 17 386 41 l24 23 -32 5
c-18 3 -59 6 -90 6 -31 1 -78 8 -103 17 -37 12 -75 14 -183 10 -75 -2 -138 -5
-139 -5 -1 -1 -9 -8 -17 -17 -15 -14 -16 -13 -16 10 l0 26 334 0 333 0 38 26
c21 14 50 30 63 35 46 18 16 20 -124 9 -145 -12 -516 -14 -571 -4 -19 4 -30
11 -27 18 11 28 95 35 476 41 329 6 397 9 450 24 l63 18 -45 8 c-25 4 -142 6
-260 4 -302 -5 -469 -1 -450 11 10 6 11 10 3 10 -14 0 -19 30 -5 30 4 0 187 3
407 6 354 4 401 7 412 21 7 9 12 18 10 19 -1 1 -182 5 -402 8 -220 3 -426 8
-458 12 -50 6 -58 10 -54 25 5 18 -3 19 -104 19 -66 0 -109 -4 -109 -10 0 -5
7 -10 16 -10 8 0 12 -5 9 -10 -4 -6 -10 -8 -15 -5 -4 3 -10 -1 -13 -7 -2 -7
-4 -1 -4 15 0 15 3 29 6 32 4 2 266 5 583 6 541 1 576 0 596 -17 12 -10 29
-19 39 -20 10 -2 37 -6 61 -9 l43 -6 -7 38 c-4 21 -8 39 -9 41 -12 14 -275 21
-752 22 -551 0 -563 0 -563 19 0 11 4 22 9 25 21 14 347 22 944 24 344 2 357
3 357 21 0 18 -12 19 -247 21 -281 2 -666 16 -733 26 -25 3 -50 10 -56 15 -6
5 -44 8 -83 6 -39 -2 -74 0 -77 5 -3 4 265 8 595 8 533 0 601 2 601 15 0 9 -6
18 -14 21 -7 3 -297 8 -642 12 l-629 7 3 24 c1 14 5 27 7 30 3 3 285 6 628 9
515 3 635 6 697 19 113 23 118 33 15 30 -49 -1 -298 -1 -552 1 l-461 2 11 24
c11 23 17 24 152 31 77 4 323 5 547 3 336 -3 409 -6 424 -18 12 -10 15 -11 10
-2 -6 10 -1 11 17 6 28 -6 137 21 137 35 0 5 -8 13 -17 17 -10 4 -252 9 -538
10 -286 2 -540 7 -565 12 -34 8 8 10 180 12 179 2 212 4 160 11 -36 5 -83 13
-105 18 -35 9 -30 9 35 7 41 -2 248 3 460 11 212 8 395 14 408 14 15 -1 22 5
22 19 0 11 14 35 31 55 18 21 26 35 18 35 -22 -1 -2865 9 -2966 9 -51 1 -93 5
-93 10 0 5 30 12 68 16 105 10 296 43 417 72 109 25 216 28 269 7 18 -7 18 -6
0 27 -15 26 -19 55 -19 129 0 84 3 102 28 152 52 107 206 214 342 239 82 15
185 4 244 -25 66 -34 155 -125 174 -178 l15 -43 1 52 c1 69 43 199 82 252 74
103 173 172 288 202 l46 12 -3 76 c-4 98 18 172 82 269 26 39 77 98 112 130
80 73 271 175 370 198 97 23 244 14 399 -24 96 -23 137 -28 205 -25 61 2 79 0
63 -7 -40 -17 -25 -30 33 -30 36 0 53 -4 49 -11 -7 -11 -99 -8 -111 4 -4 4
-23 7 -43 7 -34 -1 -35 -2 -16 -16 80 -60 88 -62 184 -56 l91 5 -2 -27 c-3
-32 -26 -40 -97 -34 l-50 5 19 -26 c10 -14 27 -35 37 -46 10 -11 19 -31 21
-45 2 -14 11 -36 21 -50 17 -23 23 -25 92 -21 41 1 76 7 77 12 2 5 40 9 85 8
53 0 75 -3 62 -9 -32 -13 5 -23 39 -10 15 5 35 10 44 9 9 0 2 -5 -16 -10 -18
-5 -30 -13 -28 -18 8 -12 -97 -21 -231 -21 -113 0 -114 0 -111 -22 4 -27 -11
-25 181 -29 141 -2 145 -3 61 -8 -50 -3 -97 -11 -105 -18 -8 -6 -40 -13 -72
-14 l-57 -2 0 -54 c0 -42 3 -53 16 -53 37 0 4 -29 -75 -63 -32 -14 -30 -15 60
-13 l94 1 100 -51 c86 -44 105 -59 138 -105 43 -61 106 -100 148 -92 15 3 29
0 33 -5 4 -7 -3 -9 -20 -6 -24 4 -22 0 22 -40 45 -41 54 -45 101 -46 28 0 53
4 55 10 6 18 675 18 724 0 17 -7 24 -6 24 3 0 9 2 9 8 1 5 -9 37 -10 117 -4
60 4 136 4 170 -1 152 -22 295 2 295 50 0 13 -48 14 -797 15 -427 1 -555 4
-564 14 -7 6 -9 12 -4 13 6 0 17 2 25 4 8 2 33 9 55 14 24 6 238 8 545 6 470
-4 632 2 745 25 34 6 29 8 -41 9 -72 1 -134 16 -134 32 0 3 -11 4 -25 1 -15
-2 -25 0 -25 7 0 15 -53 14 -115 -2 -36 -9 -93 -11 -200 -7 -82 4 -134 7 -115
8 27 2 31 5 20 12 -11 7 0 10 38 10 28 0 52 5 52 10 0 6 57 10 153 10 83 0
246 7 360 17 161 12 211 13 216 4 9 -15 37 -5 45 16 5 13 -12 15 -142 12 -110
-3 -154 -8 -168 -19 -15 -11 -16 -11 -6 0 6 8 12 16 12 19 0 4 -330 8 -733 10
-402 2 -739 7 -747 12 -9 5 30 9 98 9 73 0 112 4 112 11 0 7 73 10 238 7 130
-1 242 1 248 4 6 4 199 8 429 8 411 2 651 15 692 39 27 16 -43 14 -152 -4 -49
-8 -96 -15 -104 -15 -7 0 22 27 65 59 44 33 97 75 119 95 35 31 37 35 15 30
-14 -3 8 10 48 30 39 19 72 37 72 39 0 3 -61 2 -135 0 -94 -4 -135 -2 -135 6
0 6 -9 11 -21 11 -11 0 -18 -4 -15 -9 3 -5 -36 -8 -87 -8 -92 1 -92 1 -14 4
42 2 77 8 77 13 0 6 -15 10 -32 10 -30 1 -31 2 -13 13 13 8 89 13 225 15 196
4 207 5 248 28 47 28 56 50 16 40 -44 -11 -17 12 49 43 34 16 78 44 97 63 19
18 59 53 88 77 28 23 52 49 52 57 0 8 8 18 18 21 9 4 40 22 69 40 41 26 51 37
49 57 -3 20 2 25 33 30 20 3 45 12 56 20 19 15 19 15 -5 16 -24 0 -66 20 -44
20 6 0 16 11 23 24 11 20 23 24 72 28 67 5 78 11 57 32 -9 9 -43 16 -89 19
-41 2 -92 9 -115 14 -22 5 -49 6 -60 2 -10 -4 -634 -8 -1386 -8 -751 -1 -1379
-3 -1395 -6 -60 -10 -483 -14 -488 -5 -4 6 28 10 80 10 64 0 90 4 101 15 9 8
26 15 40 15 13 0 24 5 24 10 0 12 3238 8 3285 -4 35 -9 56 -10 108 -3 28 4 37
2 37 -9 0 -11 6 -13 20 -9 24 8 27 -10 3 -19 -9 -4 -20 -1 -25 6 -5 8 -11 9
-15 3 -5 -5 -28 -21 -53 -34 -25 -13 -49 -28 -54 -32 -9 -8 42 -14 85 -10 9 1
16 -5 16 -14 0 -8 -7 -15 -14 -15 -8 0 -12 -4 -9 -9 4 -5 -17 -14 -45 -20 -65
-14 -134 -62 -158 -109 -23 -45 -59 -78 -148 -136 -38 -24 -80 -57 -96 -75
-15 -17 -33 -31 -40 -31 -7 0 -20 -9 -29 -19 -16 -18 -15 -19 8 -17 13 2 27 6
31 9 3 4 14 7 24 7 10 0 51 29 91 65 39 36 76 65 81 65 27 0 143 67 189 109
29 26 60 50 69 53 8 3 53 37 100 75 46 38 116 94 154 123 108 83 186 153 177
161 -4 4 -29 10 -56 13 -26 2 -56 11 -65 19 -50 44 -56 42 -139 -29 -42 -36
-93 -73 -112 -81 -19 -9 -37 -19 -40 -23 -3 -5 -17 -11 -32 -15 -30 -8 -48 11
-18 20 11 3 20 15 20 26 0 18 -8 19 -123 19 -93 0 -128 4 -143 15 -16 13 -17
16 -4 25 19 12 90 13 90 1 0 -5 -10 -12 -22 -17 -16 -5 5 -9 66 -11 57 -3 92
0 96 7 4 6 30 17 59 25 53 14 96 39 161 94 31 26 33 31 20 45 -17 17 -248 140
-352 188 -38 17 -68 35 -68 40 0 5 -5 6 -11 2 -6 -3 -14 -2 -18 3 -3 5 -40 23
-81 38 -41 16 -82 34 -90 41 -19 15 -235 88 -355 119 -49 13 -134 35 -189 49
-75 20 -179 33 -445 57 -343 31 -425 32 -646 13 -99 -8 -427 -54 -470 -66 -22
-5 -49 -11 -60 -13 -33 -4 -325 -82 -395 -105 -173 -57 -533 -222 -705 -324
-187 -110 -492 -338 -646 -484 -92 -86 -322 -338 -400 -437 -93 -117 -258
-366 -311 -470 -65 -126 -66 -127 -108 -116 -19 5 -61 15 -93 22 -79 17 -81
32 -24 151 50 106 178 311 257 414 30 38 67 87 84 109 108 141 425 469 586
607 407 348 1091 689 1630 813 322 74 486 94 818 102 574 13 964 -50 1492
-239 258 -92 694 -309 746 -371 l25 -30 57 55 c71 68 167 149 207 174 65 40
262 205 455 379 74 67 182 162 240 211 213 182 210 180 210 149z m-1456 -650
c-17 -26 -24 -31 -24 -16 0 10 28 41 36 41 2 0 -3 -11 -12 -25z m-1724 -60
c74 -13 71 -13 -150 -15 -237 -3 -235 -3 -345 -15 -65 -7 -69 -6 -54 9 30 32
407 46 549 21z m-585 -25 c3 -6 -4 -10 -17 -10 -18 0 -20 2 -8 10 19 12 18 12
25 0z m812 4 c-3 -3 -12 -4 -19 -1 -8 3 -5 6 6 6 11 1 17 -2 13 -5z m66 -11
c-7 -2 -21 -2 -30 0 -10 3 -4 5 12 5 17 0 24 -2 18 -5z m137 -8 c111 -8 331
-52 349 -70 12 -12 6 -13 -45 -10 -32 3 -72 7 -89 10 -16 3 -52 8 -80 11 -27
2 -64 9 -81 13 -28 8 -33 6 -43 -15 -10 -23 -14 -24 -118 -22 -95 2 -99 2 -30
5 l77 4 -2 28 c-1 21 -7 28 -18 26 -9 -2 -23 1 -31 6 -12 7 -12 9 1 9 13 0 13
1 0 11 -12 8 -11 9 5 5 11 -3 58 -8 105 -11z m-907 -19 c59 0 107 -1 107 -2 0
-2 -4 -14 -10 -28 -8 -23 -7 -25 23 -29 24 -4 -550 0 -635 3 -10 1 -20 6 -24
11 -3 5 -2 9 3 8 4 -1 15 0 23 4 81 31 280 55 350 42 30 -5 103 -10 163 -9z
m772 4 c-4 -7 -75 -1 -75 6 0 3 18 4 39 2 22 -1 38 -5 36 -8z m-451 -6 c9 -3
16 -14 16 -24 0 -13 -11 -20 -40 -25 -50 -8 -80 1 -80 25 0 15 9 20 43 23 23
2 43 4 44 5 1 1 8 -1 17 -4z m3703 -63 c17 -22 16 -63 -1 -87 -12 -15 -18 -17
-33 -8 -10 6 -18 18 -18 27 0 23 -37 58 -54 52 -9 -3 -1 8 17 25 28 26 36 29
55 19 12 -7 27 -19 34 -28z m-4597 9 c0 -5 -2 -10 -4 -10 -3 0 -8 5 -11 10 -3
6 -1 10 4 10 6 0 11 -4 11 -10z m1167 -6 c-3 -3 -12 -4 -19 -1 -8 3 -5 6 6 6
11 1 17 -2 13 -5z m716 -44 c23 0 36 -3 32 -9 -3 -6 7 -9 25 -8 16 1 30 6 30
11 0 12 90 0 134 -18 64 -27 43 -36 -81 -36 -65 0 -630 -1 -1255 -3 -626 -2
-1138 -3 -1138 -1 0 7 147 57 187 63 27 4 494 6 1038 4 545 -2 1007 -3 1028
-3z m3624 -56 c-20 -19 -30 -23 -43 -16 -11 6 -13 11 -5 16 6 4 11 2 11 -3 0
-6 5 -11 11 -11 5 0 8 4 4 9 -3 6 3 14 12 20 32 18 36 12 10 -15z m-3179 -69
c42 -13 52 -19 43 -28 -9 -9 -179 -12 -674 -13 -364 -1 -1038 -5 -1497 -8
-757 -6 -833 -5 -815 9 29 23 121 48 147 40 17 -5 19 -4 8 4 -10 7 -3 10 30
13 25 2 643 2 1374 1 1183 -2 1335 -4 1384 -18z m-2690 -102 c-10 -2 -26 -2
-35 0 -10 3 -2 5 17 5 19 0 27 -2 18 -5z m2191 -9 c35 -8 7 -24 -42 -24 -24 0
-36 -4 -32 -10 5 -8 -277 -10 -919 -9 -540 0 -926 5 -926 10 0 5 -14 9 -31 9
-17 0 -28 4 -24 10 6 9 -16 17 -65 22 -14 2 434 2 995 0 561 -1 1031 -5 1044
-8z m151 0 c0 -2 -7 -4 -15 -4 -8 0 -15 4 -15 10 0 5 7 7 15 4 8 -4 15 -8 15
-10z m-2730 2 c0 -3 -4 -8 -10 -11 -5 -3 -10 -1 -10 4 0 6 5 11 10 11 6 0 10
-2 10 -4z m2637 -12 c-3 -3 -12 -4 -19 -1 -8 3 -5 6 6 6 11 1 17 -2 13 -5z
m767 -33 c3 -4 -20 -9 -52 -9 -39 0 -49 2 -32 7 15 4 24 14 24 24 -2 15 1 15
27 2 15 -8 30 -19 33 -24z m-3459 19 c-3 -5 -12 -10 -18 -10 -7 0 -6 4 3 10
19 12 23 12 15 0z m2848 -27 c-18 -2 -48 -2 -65 0 -18 2 -4 4 32 4 36 0 50 -2
33 -4z m2685 -21 c16 11 16 11 0 -6 -17 -19 -44 -13 -31 7 5 8 8 8 11 -1 3
-10 7 -10 20 0z m-2336 -40 c10 -10 6 -12 -19 -10 -17 1 -29 6 -27 10 3 4 -4
8 -15 8 -10 0 -21 -5 -23 -12 -3 -7 -45 -15 -109 -20 -121 -11 -2839 -26
-2884 -17 -16 4 -24 7 -17 8 6 1 12 7 12 15 0 10 16 17 48 21 26 3 53 7 61 8
8 1 678 2 1488 1 1146 0 1476 -3 1485 -12z m-3338 -17 c8 -8 21 -15 30 -15 8
0 18 -4 21 -10 4 -6 -23 -10 -74 -10 -45 0 -81 2 -81 5 0 8 63 45 77 45 6 0
18 -7 27 -15z m6084 -4 c-3 -9 -115 -103 -138 -115 -8 -5 2 8 23 28 20 20 42
36 48 36 6 0 8 7 5 16 -3 8 -2 13 3 10 5 -3 19 3 31 14 25 22 34 25 28 11z
m-103 -21 c-10 -11 -21 -18 -23 -15 -3 3 3 12 14 20 27 20 30 18 9 -5z m-6159
-72 c4 -6 3 -8 -4 -4 -6 3 -17 -3 -25 -15 -9 -11 -18 -16 -21 -10 -4 5 4 17
16 25 27 19 25 19 34 4z m2873 -123 c25 -15 35 -17 38 -7 3 6 9 9 15 6 6 -4
65 -8 132 -11 432 -15 205 -18 -1214 -16 -965 0 -1607 5 -1625 10 -30 10 -110
15 -253 17 -51 1 -71 -2 -68 -11 3 -8 -16 -11 -65 -12 -38 0 -69 1 -69 3 0 2
15 14 33 25 l32 21 1505 -2 c1484 -3 1505 -3 1539 -23z m3261 -60 c-7 -8 -17
-15 -22 -15 -6 0 -5 7 2 15 7 8 17 15 22 15 6 0 5 -7 -2 -15z m-2740 -27 c-36
-4 -121 -8 -190 -8 -69 -1 -172 -6 -230 -11 -133 -12 -1807 -22 -1995 -12
-126 7 -558 2 -510 -6 12 -2 5 -6 -20 -12 -58 -12 -92 -11 -107 4 -9 9 -77 13
-243 16 -157 2 -232 7 -237 15 -5 7 -8 5 -8 -6 0 -19 -25 -25 -35 -8 -3 6 -1
10 5 10 6 0 17 6 24 13 10 9 386 12 1812 12 989 0 1770 -3 1734 -7z m2701 -21
c-10 -9 -11 -8 -5 6 3 10 9 15 12 12 3 -3 0 -11 -7 -18z m-6383 -5 c2 -8 -9
-12 -35 -12 -38 1 -38 1 -13 15 28 16 42 15 48 -3z m82 -2 c11 -7 6 -10 -22
-10 -20 0 -40 5 -43 10 -8 13 45 13 65 0z m753 -17 c-7 -2 -19 -2 -25 0 -7 3
-2 5 12 5 14 0 19 -2 13 -5z m3205 0 c-10 -2 -26 -2 -35 0 -10 3 -2 5 17 5 19
0 27 -2 18 -5z m-5237 -56 c-15 -19 13 -43 61 -52 31 -6 38 -4 48 16 l13 23
13 -27 c34 -64 -47 -124 -117 -87 -39 22 -63 102 -37 128 16 16 33 15 19 -1z
m3834 -17 c35 -5 -1 -8 -125 -9 -96 -1 -227 -2 -290 -3 -260 -4 -585 2 -570
12 18 12 911 12 985 0z m838 3 c-7 -2 -19 -2 -25 0 -7 3 -2 5 12 5 14 0 19 -2
13 -5z m-4483 -27 c0 -2 -8 -10 -17 -17 -16 -13 -17 -12 -4 4 13 16 21 21 21
13z m3536 -89 c32 -2 58 -10 69 -20 15 -16 -10 -17 -392 -17 -368 0 -839 14
-902 26 -79 16 60 20 587 17 323 -2 610 -5 638 -6z m830 1 c15 -15 -6 -20 -83
-21 -122 -1 -260 5 -234 10 19 4 21 7 10 14 -9 6 43 9 143 7 86 -2 160 -6 164
-10z m98 -3 c-4 -10 -20 -15 -45 -15 -50 0 -51 18 -1 23 20 2 40 4 44 5 4 1 5
-5 2 -13z m3366 -100 c-18 -19 -36 -33 -38 -31 -5 5 56 66 65 66 4 0 -8 -16
-27 -35z m-3512 8 c-10 -2 -26 -2 -35 0 -10 3 -2 5 17 5 19 0 27 -2 18 -5z
m145 0 c-7 -2 -21 -2 -30 0 -10 3 -4 5 12 5 17 0 24 -2 18 -5z m-2425 -15 c9
-9 12 -9 12 -1 0 9 286 12 1092 13 976 1 1198 -3 1027 -16 -29 -3 -57 -8 -63
-13 -7 -6 -100 -6 -226 -2 -166 6 -856 5 -1460 -1 -19 0 -47 3 -62 7 -17 5
-38 1 -59 -9 -25 -13 -64 -16 -180 -16 -87 0 -150 4 -154 10 -3 6 1 7 9 4 9
-3 16 -1 16 5 0 6 -4 11 -10 11 -5 0 -10 5 -10 10 0 14 54 12 68 -2z m1785
-118 c19 -7 17 -9 -15 -9 -21 -1 -38 -6 -38 -12 0 -9 -25 -10 -87 -5 -90 7
-368 19 -413 18 -253 -5 -415 -4 -455 4 -39 7 9 10 210 14 342 7 770 1 798
-10z m-950 -27 c-7 -2 -21 -2 -30 0 -10 3 -4 5 12 5 17 0 24 -2 18 -5z m2707
-27 c40 -3 80 -11 88 -18 8 -7 24 -11 35 -10 11 2 40 1 65 -3 32 -5 41 -10 33
-18 -10 -10 -69 -4 -231 24 -99 18 -105 20 -90 29 8 5 17 7 20 5 4 -2 39 -6
80 -9z m-1640 -47 c0 -7 -39 -8 -122 -3 -68 4 -125 8 -127 10 -2 2 53 4 122 4
83 0 127 -4 127 -11z m148 0 c10 -1 6 -4 -8 -8 -14 -4 -36 -5 -50 -2 -23 4
-23 5 -5 12 11 4 26 6 33 3 8 -2 21 -4 30 -5z m-1793 -119 c4 -6 12 -10 18 -9
7 1 28 -2 47 -7 l35 -8 -30 -7 c-39 -9 -219 -11 -239 -3 -21 8 -20 31 2 37 35
9 161 7 167 -3z m1105 -15 c0 -8 -7 -15 -15 -15 -8 0 -15 7 -15 15 0 8 7 15
15 15 8 0 15 -7 15 -15z m4400 -59 c0 -2 -8 -10 -17 -17 -16 -13 -17 -12 -4 4
13 16 21 21 21 13z m-106 -83 c-32 -25 -54 -31 -30 -8 8 8 20 15 26 15 6 0 9
4 6 8 -3 5 2 9 11 9 11 0 7 -8 -13 -24z m-1107 -55 c-2 -13 -4 -5 -4 17 -1 22
1 32 4 23 2 -10 2 -28 0 -40z m1007 10 c-5 -8 -1 -9 12 -5 14 5 12 2 -6 -13
-14 -11 -29 -20 -35 -19 -5 0 -1 6 9 14 11 8 16 15 12 15 -4 0 -4 5 -1 10 3 6
8 10 11 10 3 0 2 -5 -2 -12z m-4384 -7 c0 -16 -30 -21 -113 -21 -52 1 -91 6
-107 15 -23 13 -14 14 98 15 67 0 122 -4 122 -9z m4317 -17 c-3 -3 -12 -4 -19
-1 -8 3 -5 6 6 6 11 1 17 -2 13 -5z m-4420 -21 c-20 -2 -52 -2 -70 0 -17 2 0
4 38 4 39 0 53 -2 32 -4z m150 0 c-20 -2 -52 -2 -70 0 -17 2 0 4 38 4 39 0 53
-2 32 -4z m2243 -83 c0 -5 -30 -19 -67 -30 -38 -11 -97 -38 -133 -59 -97 -58
-191 -103 -230 -112 -31 -7 -59 -4 -148 16 -13 3 -20 10 -17 15 12 19 211 125
284 152 66 23 91 27 194 27 68 1 117 -3 117 -9z m1450 -20 c0 -27 -114 -111
-540 -396 -256 -171 -537 -360 -625 -421 -304 -208 -660 -454 -685 -473 -30
-23 -235 -163 -460 -314 -91 -62 -230 -157 -310 -213 -185 -129 -275 -182
-432 -254 -174 -80 -228 -93 -368 -92 -91 1 -128 5 -174 22 -90 32 -182 86
-266 156 -112 93 -108 92 -193 57 -176 -73 -542 -168 -738 -191 -291 -35 -851
-39 -991 -7 -136 31 -275 82 -318 117 -36 29 -100 107 -100 123 0 2 38 -15 84
-38 90 -46 286 -115 406 -143 99 -22 498 -22 755 1 278 26 471 65 920 187 66
19 72 19 114 3 24 -9 85 -48 135 -86 50 -38 124 -86 165 -106 67 -33 83 -37
172 -40 144 -6 218 13 401 107 158 80 324 182 558 341 74 50 251 169 392 263
142 95 388 262 548 372 160 110 332 227 383 260 52 33 122 81 158 106 35 25
260 173 499 329 239 155 448 295 465 311 31 30 45 36 45 19z m894 -31 c18 -14
26 -30 26 -52 0 -37 -6 -47 -40 -70 -34 -23 -57 -21 -85 8 -33 33 -32 70 4
106 35 34 59 36 95 8z m-2276 -30 c70 -11 134 -23 142 -25 8 -3 -14 -20 -55
-43 l-70 -37 -6 -60 -6 -59 -1 53 c-2 57 -20 68 -33 21 -5 -16 -7 -18 -8 -6
-1 19 -3 20 -25 11 -9 -3 -17 -18 -17 -33 -1 -17 -3 -20 -6 -8 -4 16 -33 25
-33 9 0 -4 -13 -13 -30 -19 l-30 -11 -2 -139 -1 -138 -10 135 c-5 74 -10 136
-11 137 0 0 -44 8 -96 17 -114 20 -170 34 -170 44 0 4 17 16 38 28 20 12 84
49 142 83 61 35 116 61 133 61 15 0 85 -9 155 -21z m799 -11 c-3 -8 -6 -5 -6
6 -1 11 2 17 5 13 3 -3 4 -12 1 -19z m1162 -15 c-18 -20 -50 -50 -69 -67 -73
-65 -177 -159 -219 -199 -24 -22 -73 -63 -110 -90 -81 -59 -86 -65 -41 -41 19
10 37 18 40 19 3 0 18 9 34 20 16 11 40 18 54 16 21 -2 23 0 18 21 -6 20 -4
19 9 -5 9 -15 13 -33 9 -39 -4 -6 -3 -8 3 -5 6 4 13 0 17 -8 3 -8 1 -15 -4
-15 -5 0 -11 -8 -14 -17 -8 -24 -123 -101 -163 -109 -30 -6 -32 -4 -42 32 -6
22 -11 45 -11 52 0 20 -19 14 -67 -23 -25 -19 -40 -35 -33 -35 10 0 10 -3 0
-16 -8 -8 -14 -27 -16 -42 -1 -15 0 -21 3 -14 2 6 11 12 19 12 8 0 18 8 21 17
6 15 7 15 14 -3 22 -56 -3 -77 -57 -48 -22 12 -34 25 -31 35 2 9 -1 16 -8 16
-7 0 -10 -10 -7 -24 2 -13 -1 -23 -7 -23 -6 0 -11 -10 -11 -22 0 -29 -16 -55
-27 -44 -4 5 -2 11 5 13 21 8 13 25 -10 21 -19 -2 -22 -8 -20 -30 4 -32 -3
-35 -24 -13 -12 11 -20 12 -34 5 -28 -15 -69 -58 -62 -64 3 -3 -2 -6 -11 -6
-9 0 -17 -6 -17 -14 0 -8 -20 -17 -52 -24 -49 -9 -51 -9 -30 5 12 9 22 19 22
24 0 5 -26 -9 -57 -31 -56 -38 -57 -40 -56 -85 1 -25 -3 -43 -7 -40 -5 3 -16
-5 -24 -17 -10 -14 -12 -24 -6 -28 6 -4 8 -15 5 -26 -4 -11 1 -7 11 9 10 15
26 27 36 27 9 0 22 9 28 20 6 11 17 20 25 20 9 0 15 10 15 25 0 18 5 25 19 25
11 0 22 6 25 13 5 10 7 10 12 0 9 -19 22 -16 29 7 3 11 12 20 19 20 7 0 23 11
36 26 21 21 30 24 62 19 31 -6 38 -4 38 9 0 9 8 16 20 16 11 0 20 4 20 9 0 5
23 12 52 15 44 6 55 4 65 -10 26 -35 16 -60 -32 -83 -25 -12 -47 -21 -50 -21
-13 0 -291 -163 -328 -192 -22 -18 -51 -40 -63 -48 -12 -8 -55 -37 -96 -64
-40 -27 -92 -69 -116 -93 -24 -23 -64 -57 -90 -75 -26 -17 -83 -59 -127 -93
-44 -34 -118 -87 -165 -117 -47 -31 -130 -92 -185 -136 -55 -44 -145 -107
-200 -138 -55 -31 -118 -69 -139 -83 -81 -54 -113 -72 -186 -107 -41 -20 -113
-54 -160 -77 -47 -22 -110 -58 -140 -80 -82 -58 -174 -114 -201 -122 -13 -4
-32 -14 -42 -23 -9 -8 -20 -13 -23 -9 -11 11 -271 -163 -444 -298 -154 -120
-317 -235 -975 -682 -255 -173 -386 -268 -555 -403 -52 -42 -120 -93 -150
-114 -30 -22 -85 -62 -123 -90 -37 -27 -74 -51 -81 -52 -16 -2 -51 79 -43 101
3 7 36 29 74 47 37 19 151 97 252 173 253 193 516 390 597 449 38 28 147 108
242 179 305 226 475 349 545 395 38 24 90 63 117 85 132 114 161 137 235 187
44 29 112 79 150 110 39 32 104 79 145 105 41 27 98 67 125 91 28 23 106 81
175 129 69 48 138 99 153 114 15 14 79 62 142 106 126 89 359 266 475 360 41
34 107 83 145 110 39 27 106 78 150 115 44 36 118 93 165 125 47 33 128 91
180 130 246 185 370 275 425 310 107 67 288 188 356 237 37 27 76 48 87 48 12
0 23 4 27 9 3 6 40 31 83 57 80 48 225 153 230 166 2 4 11 8 20 8 11 0 6 -11
-19 -37z m-1222 -35 c-2 -13 -4 -5 -4 17 -1 22 1 32 4 23 2 -10 2 -28 0 -40z
m26 -18 c4 -40 2 -57 -3 -45 -8 19 -14 123 -6 114 2 -2 6 -33 9 -69z m-56 -27
c-2 -16 -4 -3 -4 27 0 30 2 43 4 28 2 -16 2 -40 0 -55z m-30 -15 c-2 -18 -4
-6 -4 27 0 33 2 48 4 33 2 -15 2 -42 0 -60z m-48 0 c1 -20 -3 -40 -9 -43 -6
-4 -10 17 -9 57 0 68 17 56 18 -14z m18 35 c-3 -10 -5 -4 -5 12 0 17 2 24 5
18 2 -7 2 -21 0 -30z m-1410 -15 c-3 -8 -6 -5 -6 6 -1 11 2 17 5 13 3 -3 4
-12 1 -19z m73 12 c0 -5 -4 -10 -10 -10 -5 0 -10 5 -10 10 0 6 5 10 10 10 6 0
10 -4 10 -10z m757 -62 c-2 -13 -4 -5 -4 17 -1 22 1 32 4 23 2 -10 2 -28 0
-40z m347 28 c38 -6 71 -16 73 -21 1 -6 -27 -29 -62 -53 -64 -42 -65 -43 -67
-90 l-1 -47 -6 45 c-10 75 -19 31 -17 -88 0 -63 -2 -116 -6 -119 -5 -2 -9 51
-10 119 -1 68 -3 102 -5 76 -5 -60 -21 -63 -26 -5 -3 39 -4 38 -6 -13 -4 -89
-19 -107 -22 -25 l-3 70 -5 -70 -6 -70 -8 64 c-5 35 -11 60 -14 57 -3 -3 -5
-65 -4 -138 1 -73 -2 -138 -6 -145 -5 -6 -9 55 -10 135 -2 82 -7 150 -13 156
-17 17 -12 137 7 158 19 22 108 23 217 4z m-1355 -15 c73 -11 135 -22 138 -25
3 -2 -23 -19 -58 -37 -35 -17 -79 -41 -99 -53 -19 -12 -73 -39 -119 -59 l-83
-37 -177 25 c-97 15 -194 31 -216 37 l-40 11 43 8 c24 5 92 31 151 58 221 103
232 105 460 72z m488 -73 c61 -7 114 -16 118 -19 3 -4 -14 -18 -38 -32 -38
-23 -43 -29 -41 -59 1 -25 0 -26 -3 -5 -2 15 -6 27 -8 27 -12 0 -75 -44 -75
-52 0 -5 -4 -7 -8 -4 -24 14 -32 -17 -38 -152 -9 -188 -27 -198 -22 -13 2 90
-1 141 -7 141 -5 0 -34 -11 -62 -25 l-53 -24 0 -113 c0 -62 4 -127 9 -145 7
-25 6 -33 -6 -38 -9 -3 -18 -4 -20 -1 -2 2 -7 69 -10 149 l-6 146 -36 5 c-177
27 -287 48 -294 55 -10 10 37 36 228 129 124 60 114 59 372 30z m370 -45 c-3
-10 -5 -2 -5 17 0 19 2 27 5 18 2 -10 2 -26 0 -35z m2095 30 c24 -22 23 -32
-9 -65 -31 -32 -49 -35 -75 -11 -24 21 -23 42 4 70 25 27 54 29 80 6z m-1595
-40 c-3 -10 -5 -4 -5 12 0 17 2 24 5 18 2 -7 2 -21 0 -30z m-30 -35 c-2 -13
-4 -3 -4 22 0 25 2 35 4 23 2 -13 2 -33 0 -45z m40 -85 c-2 -21 -4 -6 -4 32 0
39 2 55 4 38 2 -18 2 -50 0 -70z m-790 -85 c-2 -35 -3 -9 -3 57 0 66 1 94 3
63 2 -32 2 -86 0 -120z m-100 105 c-3 -10 -5 -4 -5 12 0 17 2 24 5 18 2 -7 2
-21 0 -30z m12 -87 c-9 -8 -10 -5 -5 14 3 14 7 45 8 70 2 39 2 37 5 -14 3 -37
0 -63 -8 -70z m-20 -59 c1 -53 4 -76 12 -72 6 4 9 24 6 46 -2 21 0 36 4 33 5
-3 9 -22 9 -42 0 -26 -6 -41 -20 -50 -19 -12 -20 -10 -20 40 0 29 -2 91 -5
138 -3 70 -2 76 5 35 4 -27 9 -85 9 -128z m838 76 c-2 -21 -4 -6 -4 32 0 39 2
55 4 38 2 -18 2 -50 0 -70z m30 15 c-2 -13 -4 -3 -4 22 0 25 2 35 4 23 2 -13
2 -33 0 -45z m-899 -60 c2 -57 5 -111 8 -120 3 -10 1 -18 -5 -18 -7 0 -11 28
-11 73 0 39 -3 96 -7 126 -4 34 -3 52 3 48 6 -3 11 -52 12 -109z m-88 -58 c0
-80 -4 -130 -10 -130 -6 0 -10 32 -10 78 0 77 10 182 16 182 2 0 4 -58 4 -130z
m2420 79 c-51 -44 -63 -48 -58 -18 3 21 86 74 97 63 3 -3 -14 -24 -39 -45z
m-2470 -104 c0 -83 -4 -135 -10 -135 -6 0 -10 52 -10 135 0 83 4 135 10 135 6
0 10 -52 10 -135z m17 83 c-2 -13 -4 -5 -4 17 -1 22 1 32 4 23 2 -10 2 -28 0
-40z m230 30 c-3 -8 -6 -5 -6 6 -1 11 2 17 5 13 3 -3 4 -12 1 -19z m-1069 -29
c116 -27 142 -37 142 -51 0 -11 -14 -23 -34 -32 -34 -14 -34 -15 -25 -55 5
-23 5 -63 1 -93 l-9 -53 -8 92 c-6 80 -10 91 -23 84 -12 -7 -15 -21 -13 -54 1
-25 -2 -48 -8 -52 -10 -6 -14 18 -15 76 0 20 -20 14 -105 -29 l-53 -27 -4
-233 c-2 -128 -6 -237 -9 -242 -20 -32 -23 13 -18 225 4 137 2 235 -3 235 -33
-1 -35 -17 -37 -260 -2 -196 -5 -244 -16 -248 -11 -4 -12 16 -6 116 9 158 -2
352 -21 352 -11 0 -14 -34 -14 -180 0 -110 -4 -180 -10 -180 -6 0 -11 66 -12
165 -2 104 -7 164 -13 163 -11 -3 -11 -1 0 -265 8 -190 20 -250 28 -133 l4 60
-1 -60 c-1 -57 -3 -62 -33 -81 l-33 -21 0 220 c0 284 1 278 -61 285 -27 3
-119 23 -204 44 -122 29 -155 40 -155 53 0 9 12 23 28 30 100 46 356 156 402
171 75 26 162 20 338 -22z m1039 -66 c-2 -21 -4 -4 -4 37 0 41 2 58 4 38 2
-21 2 -55 0 -75z m2097 53 c-3 -9 -10 -13 -15 -10 -5 3 -9 -2 -9 -10 0 -9 -5
-16 -12 -16 -6 0 -9 -3 -5 -6 7 -8 79 35 90 54 7 11 12 10 28 -4 26 -23 24
-43 -6 -54 -14 -5 -52 -27 -83 -48 -31 -22 -64 -37 -72 -34 -8 3 -12 1 -8 -3
13 -14 -16 -31 -45 -27 -18 3 -33 -1 -38 -9 -7 -11 -9 -11 -9 -1 0 7 -4 10
-10 7 -5 -3 -10 3 -10 14 0 12 -6 21 -12 22 -7 0 10 11 39 24 29 13 58 28 65
34 44 37 113 89 116 87 1 -2 0 -11 -4 -20z m-2207 -78 c-2 -18 -4 -4 -4 32 0
36 2 50 4 33 2 -18 2 -48 0 -65z m780 55 c-3 -10 -5 -4 -5 12 0 17 2 24 5 18
2 -7 2 -21 0 -30z m60 15 c-3 -8 -6 -5 -6 6 -1 11 2 17 5 13 3 -3 4 -12 1 -19z
m-490 -135 c-2 -16 -4 -5 -4 22 0 28 2 40 4 28 2 -13 2 -35 0 -50z m-1158
-207 c1 -93 -1 -167 -4 -164 -3 3 -7 102 -8 219 -1 118 1 192 4 164 4 -27 8
-126 8 -219z m3555 250 c-6 -15 -54 -28 -54 -15 0 5 9 9 19 9 11 0 23 5 26 10
9 15 15 12 9 -4z m-2581 -111 c4 -51 3 -72 -3 -59 -10 26 -16 155 -6 143 2 -2
6 -40 9 -84z m-1123 -149 c0 -190 -2 -225 -15 -230 -13 -5 -15 24 -15 218 0
122 3 226 7 229 19 20 23 -12 23 -217z m2844 216 c7 -12 -7 -28 -31 -34 -15
-4 -23 -2 -23 6 0 26 42 48 54 28z m-1756 -104 c-1 -107 -6 -95 -10 30 -2 39
0 72 5 72 4 0 6 -46 5 -102z m1862 92 c0 -5 -4 -10 -10 -10 -5 0 -10 5 -10 10
0 6 5 10 10 10 6 0 10 -4 10 -10z m-1903 -182 c-2 -35 -3 -9 -3 57 0 66 1 94
3 63 2 -32 2 -86 0 -120z m-5570 118 c-79 -451 -89 -546 -91 -841 -1 -433 62
-707 250 -1085 137 -275 262 -454 458 -659 150 -156 413 -345 628 -452 123
-61 127 -64 123 -91 -11 -62 -13 -118 -4 -118 5 0 9 -4 9 -10 0 -22 -75 -9
-141 25 -203 103 -319 175 -444 274 -212 167 -358 314 -499 501 -134 178 -154
208 -211 320 -51 100 -84 154 -91 147 -3 -2 2 -17 11 -33 8 -16 15 -41 15 -55
0 -22 -5 -28 -29 -31 -35 -5 -58 28 -35 50 8 7 14 25 15 40 0 15 4 36 8 47 10
25 3 45 -14 39 -9 -4 -11 2 -8 19 3 14 0 28 -6 31 -9 6 -17 -28 -12 -56 3 -18
-27 -6 -32 12 -3 11 -11 20 -17 20 -7 0 -10 -7 -6 -16 3 -8 2 -12 -4 -9 -6 3
-10 15 -10 25 0 10 -4 21 -9 24 -5 3 -7 16 -3 28 3 12 1 19 -5 15 -7 -5 -26
57 -38 128 -4 23 -30 75 -38 75 -4 0 -6 4 -3 8 3 5 -1 21 -9 36 -8 14 -12 33
-8 41 3 8 0 15 -7 15 -7 0 -10 7 -7 15 4 8 2 17 -2 19 -4 3 -13 38 -19 78 -49
322 -50 729 -3 1013 11 66 29 176 41 245 11 69 24 139 29 157 5 17 8 33 6 35
-2 2 46 3 107 4 l110 1 -5 -31z m4438 -170 c2 -107 6 -199 10 -205 3 -6 -1
-18 -9 -27 -15 -14 -16 6 -16 212 0 125 3 224 6 221 4 -4 8 -94 9 -201z m1098
62 c-2 -79 -6 -145 -9 -147 -2 -2 -4 62 -4 142 0 81 4 147 9 147 4 0 6 -64 4
-142z m-5877 -9 c-63 -279 -88 -510 -89 -824 -2 -383 47 -671 170 -985 49
-125 167 -366 230 -470 190 -311 477 -609 756 -784 249 -156 600 -294 867
-341 158 -27 468 -49 590 -40 41 2 112 7 158 10 90 7 154 17 407 64 235 45
503 135 715 241 96 48 114 59 340 190 135 79 378 240 449 299 208 171 859 646
1043 762 106 67 308 171 423 219 55 23 152 63 215 90 128 54 254 93 470 145
204 50 294 58 558 52 198 -4 240 -8 332 -30 236 -57 390 -124 566 -243 141
-96 176 -126 260 -226 113 -135 151 -224 199 -463 40 -197 44 -225 51 -383 10
-240 -16 -399 -108 -652 -83 -230 -229 -500 -360 -665 -80 -101 -264 -297
-338 -359 -86 -73 -221 -168 -228 -161 -3 2 11 22 30 43 63 70 174 253 160
266 -3 4 4 9 16 13 14 3 22 13 22 27 1 20 2 20 15 -4 11 -19 14 -21 15 -7 0
27 20 20 20 -8 0 -47 33 -23 45 33 3 17 11 32 16 32 5 0 9 7 9 15 0 8 6 15 14
15 16 0 24 35 31 140 12 178 17 222 25 210 4 -7 11 25 15 71 4 46 10 102 15
124 14 72 11 -9 -6 -130 -8 -60 -21 -177 -30 -259 -8 -82 -19 -157 -24 -167
-14 -25 -12 -38 2 -15 18 32 38 118 39 171 0 28 7 86 14 130 l14 80 -5 -70
c-13 -191 -15 -249 -6 -235 5 8 13 60 17 115 4 55 11 129 15 165 8 59 8 57 4
-25 -2 -49 -6 -121 -9 -160 -4 -62 -3 -65 5 -25 13 61 31 240 39 380 l6 115 7
-91 c4 -53 2 -107 -4 -130 -5 -21 -11 -75 -13 -119 l-4 -80 14 86 c18 112 54
264 71 303 l14 31 -6 -40 c-3 -22 -11 -56 -17 -75 -6 -19 -12 -42 -14 -50 -1
-8 -9 -44 -18 -79 -8 -35 -14 -66 -11 -68 2 -2 6 9 10 24 11 47 57 196 72 231
8 19 19 68 25 110 18 131 29 186 39 192 5 3 11 26 13 50 2 25 13 61 25 80 26
41 29 102 7 151 -8 19 -14 30 -15 24 0 -5 -9 4 -20 20 -21 31 -27 99 -10 110
6 4 3 18 -7 38 -10 18 -18 43 -20 57 -1 14 -7 26 -13 28 -13 5 -13 35 1 49 17
17 3 47 -64 136 -102 135 -147 189 -206 245 -60 57 -282 195 -396 247 -63 29
-346 123 -420 140 -116 26 -595 20 -717 -9 -225 -53 -300 -74 -471 -131 -241
-79 -267 -89 -463 -185 -130 -63 -170 -87 -205 -125 -91 -98 -141 -145 -155
-145 -8 0 -14 -5 -14 -11 0 -5 -30 -24 -67 -40 -135 -60 -305 -158 -384 -221
-34 -28 -111 -86 -173 -131 -61 -44 -174 -127 -251 -183 -553 -402 -1018 -602
-1685 -725 -157 -29 -506 -36 -720 -15 -384 37 -766 166 -1107 372 -142 86
-184 116 -285 201 -190 160 -291 267 -404 428 -133 188 -203 324 -283 548
-114 318 -151 538 -158 949 -6 294 2 406 38 560 24 104 30 222 12 248 -8 11
-9 21 -4 24 5 4 8 14 7 24 -6 35 82 261 118 306 8 10 19 15 25 11 6 -3 11 1
11 10 0 9 -4 14 -9 10 -6 -3 -6 6 -1 23 11 41 30 75 38 68 3 -4 0 -12 -6 -18
-15 -15 -15 -48 -1 -68 8 -12 10 -9 6 13 -2 15 -1 27 4 27 4 0 13 26 19 58 13
66 27 107 49 141 26 40 25 5 -3 -120z m5194 131 c0 -5 -4 -10 -9 -10 -6 0 -31
-18 -56 -40 -25 -22 -50 -40 -56 -40 -5 0 -9 23 -9 50 l0 50 65 0 c37 0 65 -4
65 -10z m235 -31 c66 -11 128 -22 138 -25 20 -6 23 -34 5 -52 -9 -9 -15 -73
-19 -215 l-6 -202 1 203 c1 111 -1 202 -4 202 -17 -1 -109 -68 -103 -75 5 -4
3 -5 -4 -1 -6 3 -32 -4 -57 -16 l-46 -22 -2 -140 -2 -141 -3 133 c-2 72 -8
132 -12 132 -5 0 -40 -17 -78 -39 l-68 -39 0 -240 c0 -161 -4 -245 -11 -252
-16 -16 -26 162 -18 314 8 145 3 171 -32 183 -26 9 -26 10 -26 105 0 115 5
125 93 178 70 42 51 42 254 9z m-4212 14 c-13 -2 -33 -2 -45 0 -13 2 -3 4 22
4 25 0 35 -2 23 -4z m120 0 c-13 -2 -33 -2 -45 0 -13 2 -3 4 22 4 25 0 35 -2
23 -4z m4495 -140 l-2 -148 -6 130 c-5 127 -6 128 -11 50 l-5 -80 -2 93 c-1
60 2 91 8 87 6 -3 10 -1 10 4 0 6 2 11 5 11 3 0 4 -66 3 -147z m-898 107 c0
-5 -4 -10 -10 -10 -5 0 -10 5 -10 10 0 6 5 10 10 10 6 0 10 -4 10 -10z m823
-192 c3 -101 1 -175 -4 -172 -5 3 -9 87 -8 187 0 100 2 178 4 172 2 -5 5 -90
8 -187z m14 100 c-2 -18 -4 -6 -4 27 0 33 2 48 4 33 2 -15 2 -42 0 -60z m2733
2 c-41 -38 -81 -68 -87 -65 -7 2 -12 -1 -10 -7 1 -6 -34 -40 -78 -75 -44 -36
-136 -113 -205 -173 -69 -59 -188 -159 -265 -221 -77 -62 -186 -153 -242 -201
-57 -49 -107 -87 -112 -84 -5 3 -11 15 -14 26 -5 21 33 60 59 60 8 0 14 5 14
11 0 8 5 7 15 -1 13 -11 14 -10 9 4 -3 9 -1 16 4 16 6 0 12 -6 15 -12 2 -7 2
-3 0 10 -2 15 2 22 12 22 9 0 13 -4 10 -10 -3 -6 1 -7 10 -3 13 5 14 8 3 15
-14 9 -5 18 190 194 52 46 99 84 105 84 6 0 25 15 42 34 44 49 191 149 258
175 20 8 34 18 31 23 -3 4 2 11 10 14 9 3 14 10 11 15 -7 10 25 49 40 49 5 0
40 25 78 55 37 30 72 55 77 55 6 0 10 6 10 13 0 9 2 9 8 -1 6 -9 16 -4 37 18
16 16 31 30 34 30 3 -1 -28 -32 -69 -70z m-3574 -202 c-6 -4 -14 -4 -18 -2
-12 7 -10 44 2 44 6 0 10 27 10 63 0 44 -3 58 -10 47 -15 -23 -13 53 3 87 11
24 13 12 18 -102 3 -82 1 -133 -5 -137z m801 230 c-3 -7 -5 -2 -5 12 0 14 2
19 5 13 2 -7 2 -19 0 -25z m-33 -165 c-3 -154 -7 -189 -19 -196 -13 -7 -15 10
-15 135 0 171 8 248 25 248 10 0 12 -42 9 -187z m489 162 c4 -8 2 -17 -3 -20
-6 -4 -10 3 -10 14 0 25 6 27 13 6z m-5373 -9 c0 -2 -7 -6 -15 -10 -8 -3 -15
-1 -15 4 0 6 7 10 15 10 8 0 15 -2 15 -4z m4917 -159 c-2 -23 -3 -1 -3 48 0
50 1 68 3 42 2 -26 2 -67 0 -90z m-250 46 c-2 -16 -4 -5 -4 22 0 28 2 40 4 28
2 -13 2 -35 0 -50z m320 -45 c-2 -13 -4 -5 -4 17 -1 22 1 32 4 23 2 -10 2 -28
0 -40z m-5317 30 c0 -4 -9 -8 -21 -8 -11 0 -18 4 -15 8 7 11 36 11 36 0z
m3877 -70 c-2 -18 -4 -6 -4 27 0 33 2 48 4 33 2 -15 2 -42 0 -60z m610 20 c-2
-13 -4 -3 -4 22 0 25 2 35 4 23 2 -13 2 -33 0 -45z m-534 -90 c3 -205 1 -278
-12 -291 -8 -8 -11 45 -11 206 0 138 4 217 10 217 6 0 11 -52 13 -132z m-116
35 c-2 -16 -4 -5 -4 22 0 28 2 40 4 28 2 -13 2 -35 0 -50z m-113 -166 c-3
-106 -8 -194 -10 -196 -2 -2 -4 87 -4 198 0 132 3 200 10 196 6 -4 8 -75 4
-198z m-3374 164 c0 -16 -18 -22 -24 -9 -5 10 -7 10 -12 1 -3 -7 -14 -13 -24
-13 -10 0 -21 -8 -23 -17 -3 -10 -5 -3 -6 15 -1 32 0 32 44 32 25 0 45 -4 45
-9z m4188 -158 c-11 -179 -13 -184 -22 -46 -11 156 -30 155 -25 -1 1 -61 1
-142 0 -181 -5 -117 -18 -30 -21 140 -3 159 -5 159 -16 0 -8 -115 -18 -100
-31 47 -6 69 -11 86 -21 79 -10 -6 -15 -66 -19 -252 -3 -136 -10 -250 -16
-256 -27 -35 -30 -8 -23 235 7 221 6 245 -8 232 -14 -14 -22 -159 -25 -452 -1
-46 -4 -58 -17 -58 -14 0 -16 24 -13 235 3 154 1 234 -6 232 -6 -2 -13 -100
-17 -246 -6 -185 -11 -245 -22 -256 -11 -12 -13 22 -8 231 3 172 2 244 -6 244
-6 0 -14 -5 -18 -12 -4 -6 -9 -122 -12 -257 -2 -144 -8 -251 -14 -258 -12 -15
-32 -18 -24 -4 10 16 17 501 7 501 -26 0 -31 -37 -36 -281 l-5 -254 -32 -19
-31 -20 6 85 c4 46 7 171 7 277 l0 193 43 18 c35 16 185 98 237 131 8 5 33 18
55 29 22 11 56 32 75 45 64 46 66 42 58 -101z m-1006 20 c-2 -54 -8 -105 -13
-113 -8 -14 -2 170 7 198 8 26 9 9 6 -85z m1205 50 c-3 -10 -5 -4 -5 12 0 17
2 24 5 18 2 -7 2 -21 0 -30z m-890 -130 c-2 -32 -3 -8 -3 52 0 61 1 87 3 58 2
-29 2 -78 0 -110z m940 110 c-3 -10 -5 -2 -5 17 0 19 2 27 5 18 2 -10 2 -26 0
-35z m3053 11 c0 -8 -5 -12 -10 -9 -6 4 -8 11 -5 16 9 14 15 11 15 -7z m14
-60 c3 -8 2 -12 -4 -9 -6 3 -10 10 -10 16 0 14 7 11 14 -7z m-3127 -61 c-2
-16 -4 -5 -4 22 0 28 2 40 4 28 2 -13 2 -35 0 -50z m20 -35 c-2 -18 -4 -4 -4
32 0 36 2 50 4 33 2 -18 2 -48 0 -65z m3000 75 c-3 -5 -27 -23 -54 -42 l-48
-33 50 45 c45 41 66 53 52 30z m-2780 -25 c-3 -7 -5 -2 -5 12 0 14 2 19 5 13
2 -7 2 -19 0 -25z m2905 -14 c12 -43 14 -186 3 -209 -8 -17 -7 -18 7 -7 14 11
17 5 26 -50 51 -295 82 -581 82 -764 l0 -102 -27 -5 c-20 -4 -48 5 -96 30 -93
49 -107 69 -107 153 0 99 -25 320 -60 525 -16 99 -32 200 -34 225 -2 25 -5 45
-6 45 -1 0 -3 10 -6 22 -3 16 5 29 30 48 18 14 37 25 41 25 4 0 32 23 62 51
29 28 59 49 65 47 7 -3 15 -18 20 -34z m241 -25 c-3 -11 -14 -26 -24 -32 -11
-7 -19 -17 -19 -24 0 -7 -2 -13 -4 -13 -2 0 -11 -3 -20 -6 -11 -4 -16 -1 -16
10 0 9 11 21 25 26 14 5 25 17 25 28 0 22 8 32 26 32 7 0 10 -8 7 -21z m91
-15 c13 -34 7 -46 -19 -40 -14 4 -34 14 -46 24 -20 17 -20 17 3 24 39 11 56 9
62 -8z m-184 -4 c0 -5 -5 -10 -11 -10 -8 0 -8 -5 1 -15 10 -12 10 -15 -2 -15
-12 0 -18 30 -9 48 3 7 21 1 21 -8z m-4181 -114 c-9 -8 -10 -3 -5 23 3 18 7
43 8 55 1 11 3 1 5 -23 3 -26 -1 -48 -8 -55z m918 12 c-2 -13 -4 -3 -4 22 0
25 2 35 4 23 2 -13 2 -33 0 -45z m-1035 -60 c-7 -7 -12 -8 -12 -2 0 14 12 26
19 19 2 -3 -1 -11 -7 -17z m-3425 -84 c-3 -3 -12 -4 -19 -1 -8 3 -5 6 6 6 11
1 17 -2 13 -5z m4180 -36 c-3 -8 -6 -5 -6 6 -1 11 2 17 5 13 3 -3 4 -12 1 -19z
m73 18 c0 -9 -30 -14 -35 -6 -4 6 3 10 14 10 12 0 21 -2 21 -4z m-120 -36 c0
-16 0 -33 1 -37 0 -4 -4 -9 -10 -11 -7 -2 -11 12 -11 37 0 23 5 41 10 41 6 0
10 -13 10 -30z m-2510 -74 c0 -8 -15 -26 -32 -39 -43 -32 -147 -87 -165 -87
-8 0 -23 -5 -34 -11 -16 -8 -18 -13 -8 -25 6 -8 22 -14 35 -14 26 0 126 46
173 79 41 29 40 12 -1 -28 -45 -44 -131 -84 -183 -85 -55 -1 -99 29 -103 70
-5 50 40 82 170 119 130 38 148 40 148 21z m1980 -250 c0 -2 -9 -6 -20 -9 -11
-3 -18 -1 -14 4 5 9 34 13 34 5z m-460 -77 c0 -6 -9 -28 -19 -48 -10 -20 -23
-52 -28 -71 l-10 -35 -11 41 c-7 23 -19 47 -27 54 -8 7 -15 22 -15 33 0 20 1
20 26 -4 l25 -24 19 25 c11 14 20 28 20 33 0 12 20 8 20 -4z m-2162 -28 c58
-31 127 -116 221 -277 48 -82 98 -167 111 -188 13 -21 19 -37 13 -35 -12 4
-175 203 -213 259 -13 19 -59 83 -102 141 -96 130 -97 135 -30 100z m1952 -50
c0 -49 1 -50 33 -53 l32 -4 -37 -17 c-21 -9 -40 -17 -43 -17 -3 0 -5 32 -5 70
0 40 4 70 10 70 6 0 10 -22 10 -49z m-82 7 c26 -26 13 -56 -34 -84 -25 -15
-50 -36 -54 -48 -6 -14 -9 3 -9 56 -1 65 2 77 17 81 34 9 68 7 80 -5z m-168
-62 c0 -23 -49 -76 -70 -76 -5 0 -16 -12 -24 -27 -15 -27 -15 -26 -16 44 0 79
-1 78 78 82 28 1 32 -2 32 -23z m-170 -58 c-9 -46 -34 -70 -89 -86 -50 -14
-141 -15 -141 -2 0 5 8 10 18 10 10 0 26 6 36 13 15 11 11 12 -24 9 l-41 -4 3
33 c3 31 6 34 38 37 30 2 37 -2 48 -25 6 -15 12 -37 12 -49 0 -22 1 -22 30 -8
30 15 70 59 70 76 0 13 23 37 36 38 8 0 9 -13 4 -42z m-59 0 c-3 -21 -6 -26
-9 -15 -3 17 3 47 11 47 2 0 1 -15 -2 -32z m-2248 -40 l22 -23 -34 -3 c-33 -3
-51 9 -51 36 0 20 38 14 63 -10z m1937 16 c0 -3 -5 -14 -10 -25 -7 -13 -7 -19
0 -19 15 0 12 -26 -4 -39 -12 -10 -13 -8 -9 10 4 14 2 20 -4 16 -15 -9 -25 34
-11 50 10 13 38 18 38 7z m-801 -184 c147 -218 267 -427 312 -540 21 -55 40
-150 39 -203 l0 -28 37 27 38 27 -35 -32 c-19 -18 -41 -36 -47 -42 -30 -24
-10 -29 21 -5 28 21 291 156 304 156 2 0 -31 -26 -74 -57 -44 -31 -115 -83
-159 -115 -135 -97 -258 -202 -287 -243 -39 -56 -56 -126 -40 -167 14 -38 12
-41 -22 -29 -62 24 -89 124 -61 227 22 81 87 156 185 215 77 45 100 81 100
151 0 65 -55 186 -147 328 -77 119 -273 454 -273 466 0 17 39 -31 109 -136z
m706 120 c3 -5 2 -10 -4 -10 -5 0 -13 5 -16 10 -3 6 -2 10 4 10 5 0 13 -4 16
-10z m-75 -4 c0 -2 -8 -10 -17 -17 -16 -13 -17 -12 -4 4 13 16 21 21 21 13z
m-90 -18 c0 -31 -22 -87 -40 -103 -16 -15 -22 -15 -35 -5 -21 18 -19 33 5 27
25 -6 50 26 50 65 0 16 5 28 10 28 6 0 10 -6 10 -12z m-1020 -39 c0 -6 7 -8
16 -5 17 6 44 -9 44 -25 0 -5 -10 -5 -22 -1 -13 5 -39 7 -58 6 -66 -5 -184 -3
-189 2 -3 3 23 5 59 4 86 -2 90 -2 90 10 0 5 -26 11 -57 13 -45 2 -38 4 30 5
58 1 87 -2 87 -9z m990 -484 c0 -2 -13 -11 -30 -20 -38 -19 -40 -11 -2 9 31
17 32 18 32 11z m105 -15 c-3 -5 -12 -10 -18 -10 -7 0 -6 4 3 10 19 12 23 12
15 0z m-81 -36 c-26 -14 -65 -39 -86 -56 -21 -16 -38 -26 -38 -21 0 12 141
103 159 103 8 0 -8 -12 -35 -26z m-154 -19 c-7 -8 -17 -15 -23 -15 -5 0 -2 9
8 20 21 23 35 19 15 -5z m200 1 c-73 -49 -170 -105 -170 -98 1 8 181 122 195
122 5 0 -6 -11 -25 -24z m3857 -12 c-3 -3 -12 -4 -19 -1 -8 3 -5 6 6 6 11 1
17 -2 13 -5z m-3757 -8 c0 -3 -38 -26 -85 -51 -47 -26 -119 -71 -160 -101 -49
-34 -75 -48 -75 -38 0 17 146 113 244 160 75 36 76 37 76 30z m-300 -91 c-13
-14 -26 -22 -29 -19 -3 3 5 14 18 25 33 27 39 24 11 -6z m4653 8 c-7 -2 -19
-2 -25 0 -7 3 -2 5 12 5 14 0 19 -2 13 -5z m124 1 c-3 -3 -12 -4 -19 -1 -8 3
-5 6 6 6 11 1 17 -2 13 -5z m-62 -14 c13 -5 14 -9 5 -9 -8 0 -24 4 -35 9 -13
5 -14 9 -5 9 8 0 24 -4 35 -9z m102 4 c-3 -3 -12 -4 -19 -1 -8 3 -5 6 6 6 11
1 17 -2 13 -5z m-5802 -44 c22 -3 38 -9 35 -15 -9 -17 -62 -8 -84 15 -11 13
-14 19 -6 14 8 -4 33 -11 55 -14z m5792 14 c-3 -3 -12 -4 -19 -1 -8 3 -5 6 6
6 11 1 17 -2 13 -5z m133 -4 c8 -5 11 -10 5 -10 -5 0 -17 5 -25 10 -8 5 -10
10 -5 10 6 0 17 -5 25 -10z m-70 -10 c18 -12 2 -12 -25 0 -13 6 -15 9 -5 9 8
0 22 -4 30 -9z m-55 -20 c3 -6 -1 -7 -9 -4 -18 7 -21 14 -7 14 6 0 13 -4 16
-10z m155 -22 c25 -13 28 -17 10 -12 -14 4 -41 15 -60 26 -25 13 -28 17 -10
12 14 -4 41 -15 60 -26z m-6317 -34 c-7 -18 -11 -17 -29 0 -8 8 -11 21 -8 29
5 14 8 14 24 0 10 -9 16 -22 13 -29z m6298 4 c58 -23 91 -45 49 -33 -39 12
-126 53 -114 54 6 1 36 -9 65 -21z m-7 -48 c36 -16 66 -31 66 -34 0 -5 -140
52 -149 60 -13 12 26 0 83 -26z m175 -17 c33 -20 60 -38 58 -39 -4 -4 -137 66
-137 72 0 10 21 2 79 -33z m-64 -13 c3 -5 2 -10 -4 -10 -5 0 -13 5 -16 10 -3
6 -2 10 4 10 5 0 13 -4 16 -10z m-135 -15 c14 -8 19 -14 10 -14 -8 0 -24 6
-34 14 -25 19 -9 19 24 0z m365 -25 c10 -11 16 -20 13 -20 -3 0 -13 9 -23 20
-10 11 -16 20 -13 20 3 0 13 -9 23 -20z m-1608 -4 c-7 -8 -79 -40 -158 -71
-319 -127 -696 -340 -966 -546 -150 -115 -234 -191 -488 -439 -229 -224 -447
-422 -550 -502 -92 -70 -349 -237 -402 -260 -26 -12 -69 -34 -96 -51 -112 -69
-410 -181 -577 -217 -30 -6 -69 -16 -85 -21 -17 -4 -55 -11 -85 -13 -30 -3
-55 -6 -55 -7 0 -2 -35 -8 -88 -14 -27 -3 -68 -10 -92 -15 -76 -17 -430 -24
-545 -11 -450 52 -788 138 -1085 275 -139 64 -260 168 -368 314 -44 60 -77
140 -77 185 0 29 35 17 200 -73 397 -215 777 -331 1185 -359 137 -9 430 1 570
20 254 34 633 134 870 229 114 45 401 195 530 277 165 105 473 322 621 439
228 179 391 288 790 525 116 69 358 183 510 239 143 53 346 105 427 109 25 1
26 -1 14 -13z m1458 4 c3 -6 -1 -7 -9 -4 -18 7 -21 14 -7 14 6 0 13 -4 16 -10z
m15 -56 c0 -2 -9 0 -20 6 -11 6 -20 13 -20 16 0 2 9 0 20 -6 11 -6 20 -13 20
-16z m-960 6 c63 -6 129 -13 145 -17 l30 -6 -25 -8 c-23 -8 -22 -8 6 -6 24 2
31 -1 29 -12 -1 -10 13 -22 36 -32 35 -16 38 -20 45 -75 12 -97 -6 -104 -158
-60 -153 44 -224 51 -371 38 -72 -7 -152 -17 -177 -23 -145 -34 -216 -53 -220
-59 -12 -16 -68 -28 -79 -17 -8 8 -11 7 -11 -4 0 -22 -196 -47 -246 -31 -29 9
-34 8 -35 -6 0 -10 -3 -12 -5 -5 -7 15 -34 5 -34 -12 0 -7 -6 -12 -12 -11 -7
0 -15 -3 -16 -9 -6 -17 -24 -35 -31 -30 -11 6 -62 -30 -54 -38 3 -4 -3 -7 -15
-7 -16 0 -22 -6 -22 -21 0 -18 -2 -19 -15 -9 -12 10 -15 10 -15 0 0 -7 -7 -10
-17 -6 -9 4 -19 3 -22 -2 -3 -4 -21 -18 -39 -31 -18 -12 -30 -26 -28 -30 3 -4
-4 -7 -14 -7 -16 0 -13 6 13 28 18 15 59 44 92 65 33 20 89 56 125 81 78 54
400 212 560 275 141 56 221 77 325 87 119 11 130 11 255 0z m1225 -116 c9 -15
12 -23 6 -20 -11 7 -35 46 -28 46 3 0 12 -12 22 -26z m-9 -59 c25 -36 44 -68
41 -71 -3 -3 -18 14 -34 38 -15 23 -36 52 -45 62 -17 19 -23 36 -14 36 3 0 26
-29 52 -65z m125 -17 c36 -45 89 -149 89 -175 0 -10 -16 18 -35 62 -20 44 -46
91 -59 105 -12 14 -33 41 -45 60 -25 38 -19 32 50 -52z m-147 -26 c8 -16 22
-34 30 -41 17 -14 21 -31 8 -31 -7 0 -92 124 -92 135 0 11 40 -35 54 -63z m96
4 c0 -6 -7 -2 -15 8 -8 11 -15 25 -15 30 0 6 7 2 15 -8 8 -11 15 -25 15 -30z
m65 -65 c30 -60 69 -180 61 -188 -3 -3 -9 8 -12 25 -4 18 -10 32 -14 32 -4 0
-15 28 -26 63 -10 34 -27 77 -38 96 -11 19 -15 31 -8 27 7 -4 23 -29 37 -55z
m-215 -21 c18 -27 29 -54 26 -59 -4 -5 3 -25 14 -43 11 -18 20 -43 20 -56 0
-13 4 -21 8 -18 4 2 15 -15 24 -40 8 -24 14 -44 13 -44 -8 0 -64 112 -84 165
-12 33 -35 84 -51 113 -34 63 -14 51 30 -18z m43 20 c15 -21 23 -41 18 -44 -9
-6 -25 15 -50 62 -20 37 5 24 32 -18z m136 -34 c27 -62 34 -86 24 -86 -5 0
-17 24 -28 53 -10 28 -20 58 -23 65 -2 6 -2 12 1 12 4 0 15 -20 26 -44z m-863
-18 c52 -57 118 -138 132 -165 9 -16 9 -30 -2 -60 -62 -168 -203 -432 -325
-608 -433 -626 -1101 -1136 -1771 -1353 -329 -106 -571 -138 -977 -129 -192 4
-648 39 -659 50 -9 8 36 48 47 42 14 -9 88 13 112 33 16 15 16 16 -2 36 -10
12 -22 37 -26 56 -4 19 -13 38 -19 42 -7 5 -5 8 7 8 9 0 17 5 17 10 0 7 140 9
413 8 387 -2 420 -1 552 21 509 83 963 285 1370 610 259 206 453 404 635 646
170 226 296 445 406 702 21 51 41 93 44 93 3 0 24 -19 46 -42z m828 -12 c20
-48 30 -82 21 -74 -12 12 -54 118 -44 112 5 -3 15 -20 23 -38z m-1184 8 c0
-31 -51 -142 -132 -289 -73 -132 -222 -345 -334 -476 -76 -88 -313 -320 -394
-385 -19 -15 -53 -44 -75 -65 -42 -39 -226 -158 -382 -247 -252 -144 -562
-258 -838 -307 -115 -21 -285 -30 -305 -16 -29 20 13 43 102 57 352 55 750
194 1037 361 319 186 570 399 846 718 119 138 286 388 365 546 30 60 84 129
102 129 4 0 8 -12 8 -26z m1158 -37 c31 -73 27 -83 -8 -17 -31 58 -35 70 -22
70 4 0 17 -24 30 -53z m-29 -38 c18 -33 31 -67 29 -75 -2 -9 -20 19 -40 60
-45 90 -36 102 11 15z m221 17 c0 -3 -4 -8 -10 -11 -5 -3 -10 -1 -10 4 0 6 5
11 10 11 6 0 10 -2 10 -4z m-93 -38 c-3 -8 -6 -5 -6 6 -1 11 2 17 5 13 3 -3 4
-12 1 -19z m-455 -110 l29 -37 -49 -103 c-28 -57 -53 -114 -57 -128 -19 -66
-175 -351 -268 -490 -114 -171 -370 -461 -547 -618 -340 -304 -622 -470 -1175
-692 -310 -124 -592 -195 -870 -220 -194 -17 -710 -14 -875 5 -74 8 -150 16
-168 16 -18 0 -30 4 -28 8 3 5 -6 6 -19 3 -15 -2 -25 0 -25 7 0 6 -16 11 -36
11 -21 0 -33 4 -29 10 3 6 17 10 31 10 17 0 24 6 24 19 0 24 65 35 82 14 7 -8
14 -10 17 -4 4 6 64 4 166 -5 205 -18 573 -25 740 -14 112 8 381 49 523 81
147 33 443 144 627 237 275 137 576 334 785 512 180 154 426 410 557 580 90
118 233 338 293 452 58 111 156 342 181 426 l12 42 25 -42 c14 -24 38 -60 54
-80z m565 90 c-3 -7 -5 -2 -5 12 0 14 2 19 5 13 2 -7 2 -19 0 -25z m-149 -19
c-3 -8 -7 -3 -11 10 -4 17 -3 21 5 13 5 -5 8 -16 6 -23z m69 -21 c-3 -8 -6 -5
-6 6 -1 11 2 17 5 13 3 -3 4 -12 1 -19z m-85 -72 c-7 -12 -21 21 -20 49 0 15
3 13 13 -10 7 -16 10 -34 7 -39z m-2719 -5 c-13 -11 -23 -24 -23 -30 0 -6 -6
-11 -12 -11 -7 0 -32 -18 -56 -40 -24 -22 -45 -40 -48 -40 -20 0 130 139 151
139 6 0 0 -8 -12 -18z m2647 -36 c0 -5 -5 -3 -10 5 -5 8 -10 20 -10 25 0 6 5
3 10 -5 5 -8 10 -19 10 -25z m-1910 -140 c61 -42 68 -50 56 -64 -7 -9 -16 -23
-20 -31 -4 -8 2 -4 13 10 11 14 21 21 21 16 0 -16 -31 -45 -44 -40 -7 3 -29
-15 -49 -39 -19 -24 -55 -59 -80 -77 -42 -33 -44 -36 -40 -80 2 -29 -2 -51
-11 -64 -14 -17 -18 -15 -80 37 -36 31 -74 58 -86 62 -18 6 -20 14 -19 89 l1
82 54 42 c29 23 77 70 106 106 l53 64 27 -32 c15 -19 59 -55 98 -81z m1689
-77 c1 -15 -6 -33 -14 -42 -17 -16 -20 -30 -6 -21 18 11 43 -27 37 -56 -3 -16
-1 -31 4 -34 7 -4 6 -13 0 -25 -12 -23 -13 -33 -1 -26 4 3 6 -6 3 -19 -3 -18
-11 -25 -28 -25 -17 0 -24 -6 -24 -20 0 -11 -7 -20 -15 -20 -22 0 -18 -31 5
-37 23 -6 23 -5 9 -54 -7 -21 -16 -36 -21 -33 -5 4 -9 -2 -8 -12 4 -34 0 -42
-78 -161 -92 -139 -184 -252 -379 -468 -120 -132 -202 -211 -353 -340 -121
-103 -185 -149 -432 -308 -64 -42 -124 -87 -134 -101 -15 -24 -82 -61 -121
-68 -11 -2 -20 11 -29 42 -20 67 -17 83 19 106 17 12 91 71 162 131 72 59 166
135 210 168 125 92 384 325 487 438 307 337 376 436 574 827 122 242 130 251
133 158z m478 -80 c-3 -7 -5 -2 -5 12 0 14 2 19 5 13 2 -7 2 -19 0 -25z m124
-110 c-9 -29 -10 -24 -9 37 1 39 4 75 7 80 11 19 12 -83 2 -117z m-134 0 c-2
-13 -4 -5 -4 17 -1 22 1 32 4 23 2 -10 2 -28 0 -40z m90 15 c-3 -10 -5 -4 -5
12 0 17 2 24 5 18 2 -7 2 -21 0 -30z m-40 -25 c-3 -7 -5 -2 -5 12 0 14 2 19 5
13 2 -7 2 -19 0 -25z m13 -78 c-6 -42 -8 -47 -9 -20 -1 34 8 84 14 78 2 -2 0
-28 -5 -58z m-3452 -61 c2 -25 -3 -62 -10 -84 l-13 -40 -72 -8 c-72 -9 -73 -9
-97 20 -18 21 -23 35 -19 58 12 65 21 71 123 79 30 2 56 9 58 16 9 25 27 0 30
-41z m697 -29 c15 -28 14 -33 -2 -60 -12 -22 -25 -30 -45 -30 -40 0 -52 29
-32 80 21 51 55 56 79 10z m105 4 c15 -38 13 -44 -15 -44 -21 0 -25 5 -25 28
0 48 24 58 40 16z m2587 -31 c-3 -10 -5 -2 -5 17 0 19 2 27 5 18 2 -10 2 -26
0 -35z m-3671 -81 c-18 -16 -18 -16 -6 6 6 13 14 21 18 18 3 -4 -2 -14 -12
-24z m-3039 -148 c-3 -3 -12 -4 -19 -1 -8 3 -5 6 6 6 11 1 17 -2 13 -5z m240
0 c-3 -3 -12 -4 -19 -1 -8 3 -5 6 6 6 11 1 17 -2 13 -5z m-67 -34 c20 -6 21
-8 5 -8 -11 0 -31 4 -45 8 -20 6 -21 8 -5 8 11 0 31 -4 45 -8z m100 -20 c20
-6 21 -8 5 -8 -11 0 -33 4 -50 8 -27 7 -27 8 -5 8 14 0 36 -4 50 -8z m-80 -40
c0 -5 -7 -10 -15 -10 -8 0 -15 5 -15 10 0 6 7 10 15 10 8 0 15 -4 15 -10z
m6387 -47 c-3 -10 -5 -4 -5 12 0 17 2 24 5 18 2 -7 2 -21 0 -30z m-6710 1 c-3
-3 -12 -4 -19 -1 -8 3 -5 6 6 6 11 1 17 -2 13 -5z m70 -20 c-3 -3 -12 -4 -19
-1 -8 3 -5 6 6 6 11 1 17 -2 13 -5z m200 -40 c-3 -3 -12 -4 -19 -1 -8 3 -5 6
6 6 11 1 17 -2 13 -5z m60 -10 c-3 -3 -12 -4 -19 -1 -8 3 -5 6 6 6 11 1 17 -2
13 -5z m-1179 -22 c14 -14 18 -28 14 -51 l-5 -33 -15 31 c-19 39 -67 44 -82 9
-8 -22 -9 -22 -9 4 -2 49 62 75 97 40z m1229 12 c-3 -3 -12 -4 -19 -1 -8 3 -5
6 6 6 11 1 17 -2 13 -5z m-1303 -125 c-8 -13 -102 -11 -109 2 -10 15 -4 19 46
28 34 6 47 4 56 -7 7 -8 10 -19 7 -23z m154 29 c7 -7 12 -20 12 -30 0 -15 -5
-17 -27 -12 -36 9 -47 19 -40 38 7 19 38 21 55 4z m-68 -28 c0 -5 -7 -10 -16
-10 -8 0 -12 5 -9 10 3 6 10 10 16 10 5 0 9 -4 9 -10z m-80 -60 c18 -25 25
-28 36 -19 8 6 14 17 14 25 0 23 16 24 38 3 12 -11 22 -23 22 -27 0 -4 -23
-18 -50 -30 l-49 -24 -35 27 c-51 39 -62 75 -22 75 16 0 32 -11 46 -30z m7078
-157 c-16 -2 -40 -2 -55 0 -16 2 -3 4 27 4 30 0 43 -2 28 -4z m-135 -10 c-18
-2 -48 -2 -65 0 -18 2 -4 4 32 4 36 0 50 -2 33 -4z m-6079 -279 c30 -12 5 -24
-48 -24 -65 0 -116 9 -116 21 0 10 140 12 164 3z m6581 -42 l130 -18 -65 -7
c-104 -10 -981 -1 -1010 11 -18 7 -21 11 -10 15 25 9 147 16 154 10 4 -4 30
-5 59 -4 244 15 332 17 462 15 83 -2 209 -12 280 -22z m-6060 -66 c0 -12 -23
-33 -70 -61 -38 -24 -105 -72 -148 -106 -146 -119 -198 -159 -208 -159 -5 0
-9 10 -9 22 0 60 338 332 405 326 22 -2 30 -8 30 -22z m264 -145 c70 -36 84
-51 75 -85 -9 -38 -17 -39 -74 -12 -74 36 -270 168 -264 178 3 4 0 8 -7 8 -9
0 -9 3 0 14 10 12 28 8 112 -30 56 -25 126 -58 158 -73z m-664 88 c5 -7 -14
-9 -59 -7 -36 1 -66 6 -66 10 0 12 118 9 125 -3z m6676 -36 c23 -23 -70 -27
-686 -28 -570 0 -709 5 -690 23 15 16 169 19 752 18 456 -1 615 -4 624 -13z
m-2196 -124 c4 -11 4 -62 0 -113 -7 -90 -6 -94 24 -151 17 -32 31 -63 31 -69
0 -11 -58 -42 -64 -35 -2 2 -18 32 -35 66 -25 50 -40 67 -74 84 -59 30 -147
89 -147 99 0 8 71 53 75 48 1 -2 8 -13 14 -26 16 -30 71 -55 89 -40 7 6 12 34
12 69 0 53 2 59 28 72 37 20 40 20 47 -4z m-3292 -28 c35 -27 36 -29 18 -45
-10 -10 -40 -58 -67 -107 -59 -112 -93 -143 -147 -136 -78 11 -130 92 -93 143
14 18 16 17 55 -25 22 -23 46 -41 53 -39 7 2 41 57 76 121 35 64 65 117 66
117 2 0 19 -13 39 -29z m5014 9 c434 0 453 -1 453 -19 0 -17 -16 -18 -267 -25
-302 -8 -1223 10 -1236 23 -11 11 32 20 92 20 24 0 46 3 50 7 3 3 107 4 230 0
123 -3 428 -6 678 -6z m-6517 -30 c0 -5 34 -38 75 -72 79 -66 104 -110 91
-161 -9 -39 -209 -223 -228 -211 -7 4 -8 2 -4 -4 3 -6 -1 -15 -11 -21 -27 -14
-35 -14 -44 1 -7 10 -9 10 -9 0 0 -7 -7 -28 -15 -48 l-14 -35 -83 86 c-48 50
-88 102 -96 123 l-12 36 67 69 c83 85 264 247 275 247 4 0 8 -4 8 -10z m1775
-111 c112 -30 158 -153 95 -253 -50 -79 -148 -108 -228 -67 -49 25 -68 48 -81
96 -22 84 30 186 109 217 54 21 55 21 105 7z m5139 -28 c13 -11 14 -16 4 -22
-24 -15 -1566 -3 -1551 12 18 17 363 26 929 25 501 -1 604 -3 618 -15z m-2536
-119 c23 -60 42 -114 42 -120 0 -19 23 -14 84 17 57 29 57 29 65 7 25 -65 27
-61 -56 -94 -119 -47 -125 -48 -146 -13 -16 27 -97 260 -97 279 0 9 37 30 56
31 6 1 30 -48 52 -107z m-2243 29 c33 -10 86 -22 118 -26 31 -4 60 -11 63 -16
3 -5 2 -23 -1 -40 -7 -31 -8 -31 -51 -25 -142 20 -131 20 -139 -4 -9 -28 -7
-30 57 -44 47 -10 53 -14 53 -36 0 -24 -1 -25 -72 -23 -56 2 -73 -1 -73 -12 0
-7 -2 -20 -5 -28 -5 -11 13 -18 75 -31 l81 -18 -7 -31 c-3 -18 -8 -34 -10 -36
-8 -8 -244 54 -244 64 0 8 92 325 94 325 1 0 28 -9 61 -19z m1966 -33 c65 -36
88 -114 48 -157 -24 -26 -94 -60 -123 -61 -16 0 -18 -5 -13 -32 4 -18 9 -43
13 -55 5 -20 2 -23 -20 -24 -14 -1 -31 -2 -37 -3 -13 -1 -41 89 -64 209 -8 44
-18 87 -20 96 -4 13 8 19 62 32 93 21 109 20 154 -5z m-383 -78 c36 -22 52
-54 52 -107 0 -46 -42 -86 -107 -103 -26 -6 -53 -13 -59 -15 -9 -3 -9 -16 -1
-49 6 -25 8 -48 6 -50 -2 -2 -19 -6 -37 -9 -42 -8 -47 3 -61 159 -6 65 -13
133 -16 151 -4 32 -3 32 43 36 117 9 147 7 180 -13z m-872 -9 c55 -25 61 -37
33 -67 -26 -28 -41 -30 -59 -9 -14 17 -67 20 -89 6 -23 -15 1 -35 69 -60 33
-12 66 -32 75 -44 33 -48 9 -123 -50 -151 -40 -19 -83 -15 -157 16 -50 21 -59
39 -35 72 12 16 16 16 52 3 68 -26 92 -28 109 -12 24 24 9 42 -44 55 -36 9
-59 22 -85 51 -19 21 -35 47 -35 57 0 22 55 77 90 91 38 15 81 12 126 -8z
m265 -1 c18 0 19 -8 19 -124 l0 -124 31 -12 c21 -9 39 -10 57 -4 32 11 40 49
41 182 l1 82 41 0 41 0 -4 -132 c-4 -150 -12 -174 -75 -203 -51 -24 -134 -16
-169 16 -44 40 -52 71 -47 193 5 129 8 140 29 132 9 -3 24 -6 35 -6z"/>
<path d="M9085 8499 c-11 -17 1 -21 15 -4 8 9 8 15 2 15 -6 0 -14 -5 -17 -11z"/>
<path d="M7282 8321 c-19 -5 -39 -14 -44 -19 -6 -6 -14 -62 -18 -124 -4 -62
-11 -120 -14 -129 -5 -12 -1 -18 16 -22 38 -10 256 -35 364 -43 l100 -7 -3 69
c-7 140 -15 194 -31 214 -34 41 -286 82 -370 61z m183 -59 c82 -10 145 -21
139 -24 -13 -9 -304 19 -335 31 -22 9 -21 10 11 10 19 0 102 -8 185 -17z"/>
<path d="M7770 8323 c0 -5 8 -17 17 -28 14 -18 15 -18 9 -2 -3 10 -6 23 -6 28
0 5 -4 9 -10 9 -5 0 -10 -3 -10 -7z"/>
<path d="M7094 8309 c-3 -6 -1 -16 5 -22 8 -8 11 -5 11 11 0 24 -5 28 -16 11z"/>
<path d="M7045 8250 c-16 -16 -25 -30 -20 -30 4 0 14 8 21 18 9 12 16 14 24 6
13 -13 -35 -100 -60 -107 -8 -3 6 -5 33 -6 26 0 48 2 48 7 1 4 3 16 4 27 2 11
6 40 10 64 8 42 7 43 -13 32 -18 -10 -21 -9 -16 4 9 22 1 19 -31 -15z m45 -91
c0 -5 -9 -9 -20 -9 -13 0 -18 5 -14 14 6 15 34 11 34 -5z"/>
<path d="M7810 8185 c0 -41 3 -75 8 -75 7 1 72 103 72 114 0 3 -3 5 -7 4 -5
-1 -23 6 -40 15 l-33 18 0 -76z"/>
<path d="M2840 8054 c82 -8 200 -8 200 -1 0 4 -53 6 -117 5 -65 -1 -102 -3
-83 -4z"/>
<path d="M3090 8039 c25 -4 61 -7 80 -7 l35 0 -40 9 c-22 4 -58 8 -80 7 l-40
-1 45 -8z"/>
<path d="M6329 8004 c-7 -8 -29 -24 -48 -35 l-36 -20 45 6 c25 2 52 5 60 6 8
1 19 7 23 13 6 8 10 7 14 -1 2 -7 12 -13 21 -13 12 0 13 3 4 12 -10 10 -22 13
-66 17 -4 1 -6 8 -2 16 7 19 2 19 -15 -1z"/>
<path d="M6550 7989 c-14 -6 -37 -11 -52 -11 -42 -1 -34 -25 10 -26 41 -2 142
26 142 39 0 12 -69 10 -100 -2z"/>
<path d="M5885 7920 c-30 -4 -35 -7 -19 -11 25 -7 174 1 174 10 0 7 -100 8
-155 1z"/>
<path d="M8177 7890 c-9 -23 -13 -130 -4 -130 4 0 7 11 7 24 0 13 18 44 43 72
31 36 35 43 13 26 -36 -28 -44 -28 -49 1 -2 16 -5 18 -10 7z"/>
<path d="M6245 7871 c-49 -4 -101 -13 -115 -21 l-25 -13 27 -8 c15 -4 49 -5
75 -2 26 3 54 4 61 4 6 -1 24 -2 40 -1 15 0 55 0 89 0 33 -1 64 4 68 10 3 5
11 7 17 4 7 -5 8 -2 4 5 -5 7 -14 10 -22 7 -8 -3 -11 0 -7 10 6 15 -39 17
-212 5z"/>
<path d="M6570 7864 c-25 -8 -51 -12 -57 -9 -7 2 -13 0 -13 -4 0 -16 27 -20
104 -14 69 5 74 7 65 24 -11 22 -36 23 -99 3z"/>
<path d="M6723 7795 c0 -8 5 -11 10 -8 6 3 7 1 4 -4 -4 -6 -22 -11 -41 -11
-18 0 -46 -8 -61 -18 -24 -16 -25 -19 -11 -29 9 -7 16 -20 16 -29 0 -18 56
-23 62 -5 2 6 20 11 41 12 23 1 37 6 37 14 0 7 5 12 12 11 18 -4 16 25 -2 38
-53 38 -67 44 -67 29z"/>
<path d="M2780 7781 c-20 -6 -11 -9 40 -14 36 -4 79 -3 95 2 29 9 30 9 4 10
-14 1 -46 3 -70 6 -24 2 -55 1 -69 -4z"/>
<path d="M6066 7765 c-8 -8 -19 -15 -24 -15 -6 0 -13 -7 -16 -16 -6 -15 0 -16
41 -10 27 4 108 11 181 16 73 4 136 10 139 13 19 20 -160 20 -271 1 -34 -6
-38 -5 -33 9 8 21 3 21 -17 2z"/>
<path d="M2710 7704 c-8 -3 -54 -8 -103 -12 -48 -4 -88 -11 -90 -17 -1 -5 39
-22 89 -36 50 -14 112 -37 139 -50 160 -79 257 -299 209 -471 -8 -27 23 -23
63 8 53 40 97 54 172 54 72 0 145 22 236 69 73 39 142 24 226 -47 l42 -36 -7
59 c-7 67 -18 79 -102 120 -41 20 -79 28 -186 37 -143 12 -160 18 -188 71 -8
17 -25 30 -41 34 -18 3 -27 11 -26 22 1 22 -63 101 -83 101 -8 0 -21 4 -28 9
-11 6 -10 11 3 25 10 9 15 19 12 22 -16 16 -298 48 -337 38z"/>
<path d="M2948 7703 c12 -2 30 -2 40 0 9 3 -1 5 -23 4 -22 0 -30 -2 -17 -4z"/>
<path d="M8035 7666 l-60 -21 42 -3 c42 -3 103 19 103 38 0 13 -14 11 -85 -14z"/>
<path d="M6195 7630 c8 -13 35 -13 55 0 11 7 5 10 -23 10 -23 0 -36 -4 -32
-10z"/>
<path d="M6270 7620 c0 -5 7 -10 15 -10 8 0 15 5 15 10 0 6 -7 10 -15 10 -8 0
-15 -4 -15 -10z"/>
<path d="M3620 7590 c-8 -5 -10 -10 -5 -10 6 0 17 5 25 10 8 5 11 10 5 10 -5
0 -17 -5 -25 -10z"/>
<path d="M8580 7559 c0 -11 4 -18 10 -14 5 3 7 12 3 20 -7 21 -13 19 -13 -6z"/>
<path d="M6292 7462 c-39 -14 -70 -27 -68 -29 4 -5 123 34 146 48 25 14 -2 8
-78 -19z"/>
<path d="M5915 7434 c-18 -13 -18 -14 8 -14 15 0 27 4 27 9 0 17 -15 19 -35 5z"/>
<path d="M4950 7249 c-19 -4 -88 -11 -152 -15 -93 -6 -118 -10 -118 -21 0 -12
9 -13 41 -8 29 5 40 4 35 -4 -5 -7 2 -11 18 -11 14 0 53 -9 85 -20 l59 -21 64
27 c133 56 153 67 132 75 -25 10 -120 9 -164 -2z"/>
<path d="M8845 7210 c-10 -11 -20 -18 -23 -15 -16 16 -78 -61 -70 -87 4 -10
94 78 111 107 11 21 3 19 -18 -5z"/>
<path d="M1922 7112 c-10 -10 -26 -18 -35 -16 -28 4 -19 -10 14 -25 18 -8 71
-51 118 -95 47 -45 102 -92 121 -105 19 -13 5 4 -31 37 -66 61 -112 125 -124
173 -3 14 -15 30 -26 37 -16 10 -22 9 -37 -6z"/>
<path d="M4566 7109 c-32 -5 -61 -10 -63 -13 -2 -2 26 -7 61 -11 76 -8 88 -17
46 -35 -17 -7 -29 -14 -27 -17 5 -5 189 66 202 78 11 11 -137 10 -219 -2z"/>
<path d="M1783 7103 c9 -2 23 -2 30 0 6 3 -1 5 -18 5 -16 0 -22 -2 -12 -5z"/>
<path d="M1838 7093 c7 -3 16 -2 19 1 4 3 -2 6 -13 5 -11 0 -14 -3 -6 -6z"/>
<path d="M4896 6999 c-84 -31 -110 -45 -61 -33 37 8 155 55 155 60 0 7 -13 3
-94 -27z"/>
<path d="M3923 6993 c-7 -2 -13 -8 -13 -12 0 -8 377 -8 385 0 11 12 -346 23
-372 12z"/>
<path d="M4479 6996 c-3 -3 -23 -6 -46 -7 -33 -2 -40 -6 -32 -16 6 -7 9 -20 5
-28 -5 -14 -2 -14 22 -1 53 29 87 56 71 56 -9 0 -18 -2 -20 -4z"/>
<path d="M4696 6929 c-33 -11 -62 -22 -65 -26 -14 -15 78 7 109 26 42 25 34
25 -44 0z"/>
<path d="M3868 6893 c12 -2 30 -2 40 0 9 3 -1 5 -23 4 -22 0 -30 -2 -17 -4z"/>
<path d="M4136 6865 c-11 -9 -14 -15 -7 -15 7 0 19 7 27 15 20 19 5 19 -20 0z"/>
<path d="M3848 6594 c-4 -3 -28 -12 -55 -20 l-48 -14 48 5 c46 5 112 35 76 35
-9 0 -18 -3 -21 -6z"/>
<path d="M2168 6453 c6 -2 18 -2 25 0 6 3 1 5 -13 5 -14 0 -19 -2 -12 -5z"/>
<path d="M2318 6453 c12 -2 32 -2 45 0 12 2 2 4 -23 4 -25 0 -35 -2 -22 -4z"/>
<path d="M2463 6453 c15 -2 39 -2 55 0 15 2 2 4 -28 4 -30 0 -43 -2 -27 -4z"/>
<path d="M1487 6293 c-2 -5 -1 -19 4 -33 7 -23 7 -23 8 8 1 31 -3 40 -12 25z"/>
<path d="M3208 6273 c-16 -4 -18 -21 -18 -184 l0 -179 28 -6 c15 -3 60 -15
101 -25 41 -11 90 -19 108 -19 l33 0 2 135 c1 74 2 147 2 162 1 34 -38 55
-129 73 -82 15 -120 31 -103 41 14 9 5 10 -24 2z"/>
<path d="M5686 9154 c-4 -9 -4 -19 -1 -22 2 -3 7 3 11 12 4 9 4 19 1 22 -2 3
-7 -3 -11 -12z"/>
<path d="M6130 9020 c0 -5 5 -10 10 -10 6 0 10 5 10 10 0 6 -4 10 -10 10 -5 0
-10 -4 -10 -10z"/>
<path d="M6480 8920 c0 -5 5 -10 10 -10 6 0 10 5 10 10 0 6 -4 10 -10 10 -5 0
-10 -4 -10 -10z"/>
<path d="M5498 7913 c6 -2 18 -2 25 0 6 3 1 5 -13 5 -14 0 -19 -2 -12 -5z"/>
<path d="M8528 6513 c6 -2 18 -2 25 0 6 3 1 5 -13 5 -14 0 -19 -2 -12 -5z"/>
<path d="M8220 6429 c-25 -22 -27 -25 -6 -10 16 12 35 21 42 21 8 0 14 5 14
10 0 17 -14 11 -50 -21z"/>
<path d="M7112 5566 c-34 -25 -39 -33 -26 -44 4 -4 3 -1 -1 7 -6 11 -4 13 8 8
11 -4 17 -1 17 8 0 8 6 15 14 15 8 0 16 7 20 15 7 19 8 19 -32 -9z"/>
<path d="M1185 4801 c-3 -5 -1 -12 5 -16 5 -3 10 1 10 9 0 18 -6 21 -15 7z"/>
<path d="M1237 4770 c-14 -50 -1 -66 29 -36 18 18 18 26 0 26 -8 0 -16 8 -18
18 -3 13 -5 11 -11 -8z"/>
<path d="M881 6164 c0 -11 3 -14 6 -6 3 7 2 16 -1 19 -3 4 -6 -2 -5 -13z"/>
<path d="M871 6104 c0 -11 3 -14 6 -6 3 7 2 16 -1 19 -3 4 -6 -2 -5 -13z"/>
<path d="M7655 4912 c-33 -8 -54 -17 -47 -20 19 -6 152 19 152 29 0 13 -35 10
-105 -9z"/>
<path d="M8737 4869 c23 -11 57 -22 75 -24 l33 -5 -40 19 c-22 10 -56 21 -75
24 l-35 6 42 -20z"/>
<path d="M8942 4801 c-12 -7 94 -59 110 -53 5 1 8 -1 8 -6 0 -11 69 -46 77
-39 3 4 -1 7 -10 7 -9 0 -20 6 -24 13 -21 34 -140 91 -161 78z"/>
<path d="M8005 4781 c-4 -7 -4 -15 -1 -18 3 -4 6 0 6 7 0 10 3 10 13 -2 9 -12
39 -17 117 -22 198 -12 440 -51 475 -76 6 -3 33 -7 60 -8 l50 -2 -45 15 c-25
8 -50 15 -57 15 -6 0 -33 13 -60 30 -64 39 -183 59 -389 67 -121 4 -163 3
-169 -6z"/>
<path d="M7859 4765 c-3 -2 -23 -5 -44 -6 -53 -2 -75 -8 -75 -21 0 -7 16 -8
48 -3 26 4 56 8 66 9 11 0 21 7 24 14 3 11 -10 17 -19 7z"/>
<path d="M7710 4740 c0 -5 5 -10 11 -10 5 0 7 5 4 10 -3 6 -8 10 -11 10 -2 0
-4 -4 -4 -10z"/>
<path d="M7613 4733 c9 -2 23 -2 30 0 6 3 -1 5 -18 5 -16 0 -22 -2 -12 -5z"/>
<path d="M7568 4723 c7 -3 16 -2 19 1 4 3 -2 6 -13 5 -11 0 -14 -3 -6 -6z"/>
<path d="M7365 4690 c-150 -34 -418 -134 -572 -214 -73 -38 -36 -31 74 15 177
73 316 120 443 151 69 17 127 35 128 39 2 5 8 7 13 4 5 -4 17 -1 26 5 15 9 15
11 2 7 -9 -3 -20 -2 -25 2 -5 5 -45 0 -89 -9z"/>
<path d="M9137 4495 c12 -16 41 -48 64 -70 l43 -40 -41 50 c-22 28 -51 59 -64
70 l-23 20 21 -30z"/>
<path d="M8976 4503 c5 -5 12 -12 16 -18 4 -6 8 -2 8 8 0 9 -7 17 -17 17 -9 0
-12 -3 -7 -7z"/>
<path d="M9029 4469 c-11 -7 -11 -9 3 -9 9 0 18 -6 21 -12 2 -7 8 -10 12 -6
13 12 -20 37 -36 27z"/>
<path d="M9074 4429 c-9 -16 26 -22 43 -8 14 12 15 11 8 -11 -7 -22 -6 -23 9
-11 9 8 15 19 13 25 -4 13 -65 17 -73 5z"/>
<path d="M9490 4035 c0 -5 5 -17 10 -25 5 -8 10 -10 10 -5 0 6 -5 17 -10 25
-5 8 -10 11 -10 5z"/>
<path d="M9355 3720 c-3 -5 -1 -10 4 -10 6 0 11 5 11 10 0 6 -2 10 -4 10 -3 0
-8 -4 -11 -10z"/>
<path d="M8670 5790 c0 -5 4 -10 9 -10 6 0 13 5 16 10 3 6 -1 10 -9 10 -9 0
-16 -4 -16 -10z"/>
<path d="M4577 5179 c-20 -12 -23 -29 -3 -29 17 0 40 26 29 33 -5 3 -16 1 -26
-4z"/>
<path d="M4393 5123 c-11 -28 4 -33 26 -9 l23 25 -22 -2 c-12 -1 -24 -7 -27
-14z"/>
<path d="M4080 5080 c-24 -15 -7 -19 20 -5 15 8 19 14 10 14 -8 1 -22 -3 -30
-9z"/>
<path d="M2610 4936 c0 -2 9 -6 20 -9 11 -3 18 -1 14 4 -5 9 -34 13 -34 5z"/>
<path d="M2081 994 c-49 -39 -81 -71 -78 -78 3 -8 0 -19 -6 -25 -6 -6 -7 -11
-1 -11 5 0 33 23 61 50 28 28 57 50 63 50 6 0 8 5 5 10 -3 6 -1 10 6 10 7 0 9
3 6 7 -4 3 3 17 15 30 35 38 17 27 -71 -43z"/>
<path d="M1990 859 c0 -5 5 -7 10 -4 6 3 10 8 10 11 0 2 -4 4 -10 4 -5 0 -10
-5 -10 -11z"/>
<path d="M3795 1130 c-33 -13 -56 -46 -62 -88 -5 -34 -1 -45 20 -66 38 -38 80
-35 123 8 25 25 34 43 34 68 0 55 -64 99 -115 78z"/>
<path d="M6082 993 c-24 -5 -24 -9 -1 -70 10 -27 10 -27 55 -8 31 13 35 18 32
47 -3 29 -7 33 -33 34 -16 1 -40 0 -53 -3z"/>
<path d="M5674 883 c3 -25 8 -48 10 -51 8 -8 66 10 81 25 34 34 4 73 -57 73
l-41 0 7 -47z"/>
</g>
</svg>
